CrickxDroite.ufo
<glyph name="exclam" format="1">
  <advance width="283"/>
  <unicode hex="0021"/>
  <outline>
    <contour>
      <point x="223" y="666" type="line" smooth="no"/>
      <point x="223" y="185" type="line" smooth="no"/>
      <point x="80" y="185" type="line" smooth="no"/>
      <point x="82" y="666" type="line" smooth="no"/>
    </contour>
    <contour>
      <point x="222" y="134" type="line" smooth="no"/>
      <point x="222" y="0" type="line" smooth="no"/>
      <point x="81" y="0" type="line" smooth="no"/>
      <point x="81" y="134" type="line" smooth="no"/>
    </contour>
  </outline>
</glyph>
<glyph name="quotedbl" format="1">
  <advance width="486"/>
  <unicode hex="0022"/>
  <outline>
    <contour>
      <point x="79" y="383" type="line" smooth="no"/>
      <point x="98" y="505" type="line" smooth="no"/>
      <point x="41" y="505" type="line" smooth="no"/>
      <point x="54" y="666" type="line" smooth="no"/>
      <point x="211" y="666" type="line" smooth="no"/>
      <point x="160" y="384" type="line" smooth="no"/>
    </contour>
    <contour>
      <point x="266" y="383" type="line" smooth="no"/>
      <point x="288" y="505" type="line" smooth="no"/>
      <point x="231" y="505" type="line" smooth="no"/>
      <point x="244" y="666" type="line" smooth="no"/>
      <point x="401" y="665" type="line" smooth="no"/>
      <point x="350" y="384" type="line" smooth="no"/>
    </contour>
  </outline>
</glyph>
<glyph name="numbersign" format="1">
  <advance width="672"/>
  <unicode hex="0023"/>
  <outline>
    <contour>
      <point x="592" y="387" type="line" smooth="no"/>
      <point x="573" y="273" type="line" smooth="no"/>
      <point x="309" y="273" type="line" smooth="no"/>
      <point x="298" y="203" type="line" smooth="no"/>
      <point x="369" y="203" type="line" smooth="no"/>
      <point x="378" y="267" type="line" smooth="no"/>
      <point x="502" y="266" type="line" smooth="no"/>
      <point x="491" y="203" type="line" smooth="no"/>
      <point x="562" y="203" type="line" smooth="no"/>
      <point x="543" y="86" type="line" smooth="no"/>
      <point x="472" y="86" type="line" smooth="no"/>
      <point x="458" y="1" type="line" smooth="no"/>
      <point x="334" y="1" type="line" smooth="no"/>
      <point x="349" y="86" type="line" smooth="no"/>
      <point x="277" y="86" type="line" smooth="no"/>
      <point x="264" y="1" type="line" smooth="no"/>
      <point x="140" y="1" type="line" smooth="no"/>
      <point x="155" y="86" type="line" smooth="no"/>
      <point x="80" y="86" type="line" smooth="no"/>
      <point x="100" y="203" type="line" smooth="no"/>
      <point x="176" y="203" type="line" smooth="no"/>
      <point x="186" y="273" type="line" smooth="no"/>
      <point x="109" y="273" type="line" smooth="no"/>
      <point x="128" y="387" type="line" smooth="no"/>
      <point x="204" y="387" type="line" smooth="no"/>
      <point x="217" y="470" type="line" smooth="no"/>
      <point x="340" y="470" type="line" smooth="no"/>
      <point x="327" y="387" type="line" smooth="no"/>
      <point x="400" y="387" type="line" smooth="no"/>
      <point x="411" y="470" type="line" smooth="no"/>
      <point x="535" y="470" type="line" smooth="no"/>
      <point x="522" y="387" type="line" smooth="no"/>
    </contour>
  </outline>
</glyph>
<glyph name="dollar" format="1">
  <advance width="522"/>
  <unicode hex="0024"/>
  <outline>
    <contour>
      <point x="345.086" y="658.583" type="line" smooth="no"/>
      <point x="460.017" y="612.659"/>
      <point x="440.384" y="464.64"/>
      <point x="441.192" y="464.64" type="curve" smooth="yes"/>
      <point x="306.793" y="464.64" type="line" smooth="no"/>
      <point x="306.793" y="495.36" type="line" smooth="yes"/>
      <point x="307.753" y="495.36"/>
      <point x="308.713" y="533.76"/>
      <point x="261.673" y="533.76" type="curve" smooth="yes"/>
      <point x="208.873" y="533.76"/>
      <point x="217.513" y="468.48"/>
      <point x="217.513" y="468.48" type="curve" smooth="no"/>
      <point x="217.513" y="389.76"/>
      <point x="437.353" y="410.88"/>
      <point x="439.272" y="294.72" type="curve" smooth="no"/>
      <point x="439.272" y="132.48" type="line" smooth="no"/>
      <point x="439.272" y="132.48"/>
      <point x="428.814" y="41.624"/>
      <point x="326.995" y="9.85156" type="curve" smooth="no"/>
      <point x="326.995" y="9.85156" type="line" smooth="no"/>
      <point x="322.593" y="-98" type="line" smooth="no"/>
      <point x="164.593" y="-98" type="line" smooth="no"/>
      <point x="168.378" y="13.2705" type="line" smooth="no"/>
      <point x="168.378" y="13.2705" type="line" smooth="no"/>
      <point x="90.0195" y="45.4346"/>
      <point x="84.0732" y="120.96"/>
      <point x="84.0732" y="120.96" type="curve" smooth="yes"/>
      <point x="84.0732" y="221.76" type="line" smooth="no"/>
      <point x="216.553" y="221.76" type="line" smooth="no"/>
      <point x="216.553" y="221.76"/>
      <point x="203.112" y="144.96"/>
      <point x="253.993" y="144.96" type="curve" smooth="no"/>
      <point x="309.673" y="142.08"/>
      <point x="304.873" y="214.08"/>
      <point x="304.873" y="215.04" type="curve" smooth="yes"/>
      <point x="304.873" y="337.92"/>
      <point x="80.2324" y="241.92"/>
      <point x="80.2324" y="432" type="curve" smooth="yes"/>
      <point x="80.2324" y="531.84" type="line" smooth="no"/>
      <point x="80.2324" y="531.84"/>
      <point x="92.917" y="623.799"/>
      <point x="186.843" y="658.746" type="curve" smooth="no"/>
      <point x="186.843" y="658.746" type="line" smooth="no"/>
      <point x="190.593" y="769" type="line" smooth="no"/>
      <point x="349.593" y="769" type="line" smooth="no"/>
      <point x="345.086" y="658.583" type="line" smooth="no"/>
    </contour>
  </outline>
</glyph>
<glyph name="uni0031" format="1">
  <advance width="393"/>
  <unicode hex="0031"/>
  <outline>
    <contour>
      <point x="59.5596" y="355.2" type="line" smooth="no"/>
      <point x="59.5596" y="487.68" type="line" smooth="no"/>
      <point x="180.52" y="668.16" type="line" smooth="no"/>
      <point x="307.239" y="670.08" type="line" smooth="no"/>
      <point x="313" y="0" type="line" smooth="no"/>
      <point x="167.079" y="0" type="line" smooth="no"/>
      <point x="167.079" y="422.4" type="line" smooth="no"/>
    </contour>
  </outline>
</glyph>
<glyph name="uni0034" format="1">
  <advance width="505"/>
  <unicode hex="0034"/>
  <outline>
    <contour>
      <point x="252.84" y="483.84" type="line" smooth="no"/>
      <point x="146.279" y="305.28" type="line" smooth="no"/>
      <point x="253.8" y="305.28" type="line" smooth="no"/>
    </contour>
    <contour>
      <point x="244.199" y="677.76" type="line" smooth="no"/>
      <point x="401.64" y="676.8" type="line" smooth="no"/>
      <point x="399.72" y="299.52" type="line" smooth="no"/>
      <point x="465" y="297.6" type="line" smooth="no"/>
      <point x="461.159" y="155.52" type="line" smooth="no"/>
      <point x="399.72" y="155.52" type="line" smooth="no"/>
      <point x="399.72" y="0" type="line" smooth="no"/>
      <point x="261.479" y="0" type="line" smooth="no"/>
      <point x="259.56" y="157.44" type="line" smooth="no"/>
      <point x="11.8799" y="157.44" type="line" smooth="no"/>
      <point x="9.95996" y="293.76" type="line" smooth="no"/>
    </contour>
  </outline>
</glyph>
<glyph name="uni0037" format="1">
  <advance width="451"/>
  <unicode hex="0037"/>
  <outline>
    <contour>
      <point x="86.9209" y="529.92" type="line" smooth="no"/>
      <point x="88.8408" y="666.24" type="line" smooth="no"/>
      <point x="421" y="666.24" type="line" smooth="no"/>
      <point x="419.08" y="557.76" type="line" smooth="no"/>
      <point x="192.521" y="-0.959961" type="line" smooth="no"/>
      <point x="50.4414" y="0" type="line" smooth="no"/>
      <point x="255.881" y="531.84" type="line" smooth="no"/>
    </contour>
  </outline>
</glyph>
<glyph name="uni0038" format="1">
  <advance width="500"/>
  <unicode hex="0038"/>
  <outline>
    <contour>
      <point x="201.92" y="256.32" type="curve" smooth="no"/>
      <point x="201.92" y="341.76"/>
      <point x="432.32" y="340.8"/>
      <point x="432.32" y="453.12" type="curve" smooth="no"/>
      <point x="432.32" y="565.44"/>
      <point x="432.32" y="691.2"/>
      <point x="234.561" y="691.2" type="curve" smooth="no"/>
      <point x="192.32" y="691.2"/>
      <point x="61.6162" y="668.146"/>
      <point x="59.8398" y="537.6" type="curve" smooth="yes"/>
      <point x="57.9199" y="396.48"/>
      <point x="109.76" y="372.48"/>
      <point x="110.72" y="371.52" type="curve" smooth="no"/>
      <point x="136.64" y="392.64"/>
      <point x="187.521" y="410.88"/>
      <point x="225.92" y="424.32" type="curve" smooth="no"/>
      <point x="198.08" y="453.12"/>
      <point x="189.44" y="463.68"/>
      <point x="189.44" y="508.8" type="curve" smooth="yes"/>
      <point x="189.44" y="508.8"/>
      <point x="186.636" y="560.695"/>
      <point x="239.36" y="563.52" type="curve" smooth="yes"/>
      <point x="293.12" y="566.4"/>
      <point x="286.4" y="500.16"/>
      <point x="286.4" y="473.28" type="curve" smooth="yes"/>
      <point x="286.4" y="384"/>
      <point x="60.7998" y="435.84"/>
      <point x="63.6797" y="240.96" type="curve" smooth="yes"/>
      <point x="65.2119" y="137.291"/>
      <point x="69.4453" y="-2.26953"/>
      <point x="242.24" y="-0.959961" type="curve" smooth="yes"/>
      <point x="368.96" y="0"/>
      <point x="440" y="87.3604"/>
      <point x="440" y="209.28" type="curve" smooth="yes"/>
      <point x="440" y="336.96"/>
      <point x="390.08" y="374.4"/>
      <point x="390.08" y="374.4" type="curve" smooth="no"/>
      <point x="342.08" y="337.92"/>
      <point x="301.76" y="336.96"/>
      <point x="253.76" y="307.2" type="curve" smooth="no"/>
      <point x="274.88" y="286.08"/>
      <point x="296.96" y="264.96"/>
      <point x="296.96" y="232.32" type="curve" smooth="yes"/>
      <point x="296.96" y="199.68"/>
      <point x="305.601" y="149.76"/>
      <point x="250.88" y="149.76" type="curve" smooth="no"/>
      <point x="189.44" y="149.76"/>
      <point x="202.752" y="205.892"/>
    </contour>
  </outline>
</glyph>
<glyph name="colon" format="1">
  <advance width="260"/>
  <unicode hex="003a"/>
  <outline>
    <contour>
      <point x="209" y="397" type="line" smooth="no"/>
      <point x="208" y="250" type="line" smooth="no"/>
      <point x="50" y="250" type="line" smooth="no"/>
      <point x="50" y="397" type="line" smooth="no"/>
    </contour>
    <contour>
      <point x="209" y="147" type="line" smooth="no"/>
      <point x="208" y="0" type="line" smooth="no"/>
      <point x="50" y="0" type="line" smooth="no"/>
      <point x="50" y="147" type="line" smooth="no"/>
    </contour>
  </outline>
</glyph>
<glyph name="less" format="1">
  <advance width="466"/>
  <unicode hex="003c"/>
  <outline>
    <contour>
      <point x="227" y="197" type="line" smooth="no"/>
      <point x="413" y="400" type="line" smooth="no"/>
      <point x="260" y="400" type="line" smooth="no"/>
      <point x="59" y="196" type="line" smooth="no"/>
      <point x="257" y="0" type="line" smooth="no"/>
      <point x="417" y="0" type="line" smooth="no"/>
    </contour>
  </outline>
</glyph>
<glyph name="question" format="1">
  <advance width="487"/>
  <unicode hex="003f"/>
  <outline>
    <contour>
      <point x="197.721" y="155" type="line" smooth="no"/>
      <point x="134.721" y="155" type="line" smooth="no"/>
      <point x="134.681" y="212.68" type="line" smooth="no"/>
      <point x="136.626" y="372.208"/>
      <point x="286.761" y="391"/>
      <point x="286.761" y="496.12" type="curve" smooth="no"/>
      <point x="286.761" y="496.12"/>
      <point x="282.079" y="543.5"/>
      <point x="236" y="543.5" type="curve" smooth="yes"/>
      <point x="192" y="543.5"/>
      <point x="186.681" y="485.76"/>
      <point x="186.681" y="485.76" type="curve" smooth="no"/>
      <point x="80.7207" y="526" type="line" smooth="yes"/>
      <point x="79.8174" y="526.343"/>
      <point x="98" y="695.8"/>
      <point x="266.32" y="695.8" type="curve" smooth="yes"/>
      <point x="366.16" y="695.8"/>
      <point x="427" y="604.6"/>
      <point x="427" y="518.2" type="curve" smooth="yes"/>
      <point x="427" y="355.96"/>
      <point x="273.841" y="309"/>
      <point x="273.841" y="233.72" type="curve" smooth="yes"/>
      <point x="273.841" y="155" type="line" smooth="no"/>
      <point x="210.721" y="155" type="line" smooth="no"/>
      <point x="210.721" y="123" type="line" smooth="no"/>
      <point x="275.721" y="123" type="line" smooth="no"/>
      <point x="274.721" y="2" type="line" smooth="no"/>
      <point x="135.721" y="2" type="line" smooth="no"/>
      <point x="135.721" y="123" type="line" smooth="no"/>
      <point x="197.721" y="123" type="line" smooth="no"/>
    </contour>
  </outline>
</glyph>
<glyph name="at" format="1">
  <advance width="860"/>
  <unicode hex="0040"/>
  <outline>
    <contour>
      <point x="486" y="678" type="curve" smooth="yes"/>
      <point x="506" y="678"/>
      <point x="528.667" y="676.167"/>
      <point x="554" y="672.5" type="curve" smooth="yes"/>
      <point x="579.333" y="668.833"/>
      <point x="604.667" y="662.167"/>
      <point x="630" y="652.5" type="curve" smooth="yes"/>
      <point x="655.333" y="642.833"/>
      <point x="679.5" y="629.667"/>
      <point x="702.5" y="613" type="curve" smooth="yes"/>
      <point x="725.5" y="596.333"/>
      <point x="745" y="575.167"/>
      <point x="761" y="549.5" type="curve" smooth="yes"/>
      <point x="777" y="523.833"/>
      <point x="788.333" y="492.833"/>
      <point x="795" y="456.5" type="curve" smooth="yes"/>
      <point x="801.667" y="420.167"/>
      <point x="801" y="377.667"/>
      <point x="793" y="329" type="curve" smooth="yes"/>
      <point x="789.667" y="309.667"/>
      <point x="785" y="288"/>
      <point x="779" y="264" type="curve" smooth="yes"/>
      <point x="773" y="240"/>
      <point x="763.833" y="217.5"/>
      <point x="751.5" y="196.5" type="curve" smooth="yes"/>
      <point x="739.167" y="175.5"/>
      <point x="723" y="157.833"/>
      <point x="703" y="143.5" type="curve" smooth="yes"/>
      <point x="683" y="129.167"/>
      <point x="657.333" y="122"/>
      <point x="626" y="122" type="curve" smooth="yes"/>
      <point x="598" y="122"/>
      <point x="574.333" y="126"/>
      <point x="555" y="134" type="curve" smooth="yes"/>
      <point x="535.667" y="142"/>
      <point x="520.333" y="153.333"/>
      <point x="509" y="168" type="curve" smooth="yes"/>
      <point x="505.667" y="173.333"/>
      <point x="502.167" y="180.5"/>
      <point x="498.5" y="189.5" type="curve" smooth="yes"/>
      <point x="494.833" y="198.5"/>
      <point x="491.333" y="207.667"/>
      <point x="488" y="217" type="curve" smooth="yes"/>
      <point x="484" y="227.667"/>
      <point x="480" y="239"/>
      <point x="476" y="251" type="curve" smooth="yes"/>
      <point x="476" y="253"/>
      <point x="477" y="260.833"/>
      <point x="479" y="274.5" type="curve" smooth="yes"/>
      <point x="481" y="288.167"/>
      <point x="483.333" y="302.667"/>
      <point x="486" y="318" type="curve" smooth="yes"/>
      <point x="488.667" y="336"/>
      <point x="492.333" y="356"/>
      <point x="497" y="378" type="curve" smooth="no"/>
      <point x="451" y="378" type="line" smooth="yes"/>
      <point x="437" y="378"/>
      <point x="425.667" y="370"/>
      <point x="417" y="354" type="curve" smooth="yes"/>
      <point x="408.333" y="338"/>
      <point x="400.667" y="308.333"/>
      <point x="394" y="265" type="curve" smooth="yes"/>
      <point x="392.667" y="259"/>
      <point x="393.333" y="254"/>
      <point x="396" y="250" type="curve" smooth="yes"/>
      <point x="398.667" y="246"/>
      <point x="401.833" y="242.833"/>
      <point x="405.5" y="240.5" type="curve" smooth="yes"/>
      <point x="409.167" y="238.167"/>
      <point x="413.167" y="236.5"/>
      <point x="417.5" y="235.5" type="curve" smooth="yes"/>
      <point x="421.833" y="234.5"/>
      <point x="425.333" y="234"/>
      <point x="428" y="234" type="curve" smooth="yes"/>
      <point x="430.667" y="234"/>
      <point x="434.333" y="234.667"/>
      <point x="439" y="236" type="curve" smooth="yes"/>
      <point x="453" y="240" type="line" smooth="no"/>
      <point x="469" y="246" type="line" smooth="no"/>
      <point x="502" y="165" type="line" smooth="no"/>
      <point x="498.667" y="163"/>
      <point x="493" y="160.333"/>
      <point x="485" y="157" type="curve" smooth="yes"/>
      <point x="477" y="153.667"/>
      <point x="467.167" y="150.333"/>
      <point x="455.5" y="147" type="curve" smooth="yes"/>
      <point x="443.833" y="143.667"/>
      <point x="430.833" y="140.833"/>
      <point x="416.5" y="138.5" type="curve" smooth="yes"/>
      <point x="402.167" y="136.167"/>
      <point x="387" y="135"/>
      <point x="371" y="135" type="curve" smooth="yes"/>
      <point x="355.667" y="135"/>
      <point x="340" y="138"/>
      <point x="324" y="144" type="curve" smooth="yes"/>
      <point x="308" y="150"/>
      <point x="293.667" y="159"/>
      <point x="281" y="171" type="curve" smooth="yes"/>
      <point x="268.333" y="183"/>
      <point x="258.833" y="198"/>
      <point x="252.5" y="216" type="curve" smooth="yes"/>
      <point x="246.167" y="234"/>
      <point x="245.333" y="254.667"/>
      <point x="250" y="278" type="curve" smooth="yes"/>
      <point x="258.667" y="322.667"/>
      <point x="271.167" y="357.833"/>
      <point x="287.5" y="383.5" type="curve" smooth="yes"/>
      <point x="303.833" y="409.167"/>
      <point x="321.667" y="428.333"/>
      <point x="341" y="441" type="curve" smooth="yes"/>
      <point x="360.333" y="453.667"/>
      <point x="380.333" y="461.5"/>
      <point x="401" y="464.5" type="curve" smooth="yes"/>
      <point x="421.667" y="467.5"/>
      <point x="441" y="469"/>
      <point x="459" y="469" type="curve" smooth="yes"/>
      <point x="629" y="469" type="line" smooth="no"/>
      <point x="623" y="433.667"/>
      <point x="618" y="401.667"/>
      <point x="614" y="373" type="curve" smooth="yes"/>
      <point x="612" y="361"/>
      <point x="610.167" y="349"/>
      <point x="608.5" y="337" type="curve" smooth="yes"/>
      <point x="606.833" y="325"/>
      <point x="605.167" y="314.167"/>
      <point x="603.5" y="304.5" type="curve" smooth="yes"/>
      <point x="601.833" y="294.833"/>
      <point x="600.667" y="287"/>
      <point x="600" y="281" type="curve" smooth="yes"/>
      <point x="599.333" y="275"/>
      <point x="599" y="271.667"/>
      <point x="599" y="271" type="curve" smooth="yes"/>
      <point x="599" y="267"/>
      <point x="600.333" y="261.833"/>
      <point x="603" y="255.5" type="curve" smooth="yes"/>
      <point x="605.667" y="249.167"/>
      <point x="612" y="246"/>
      <point x="622" y="246" type="curve" smooth="yes"/>
      <point x="626.667" y="246"/>
      <point x="631.333" y="250.5"/>
      <point x="636" y="259.5" type="curve" smooth="yes"/>
      <point x="640.667" y="268.5"/>
      <point x="645" y="280.167"/>
      <point x="649" y="294.5" type="curve" smooth="yes"/>
      <point x="653" y="308.833"/>
      <point x="656.5" y="324.833"/>
      <point x="659.5" y="342.5" type="curve" smooth="yes"/>
      <point x="662.5" y="360.167"/>
      <point x="665.333" y="377.667"/>
      <point x="668" y="395" type="curve" smooth="yes"/>
      <point x="670.667" y="417"/>
      <point x="669.667" y="437"/>
      <point x="665" y="455" type="curve" smooth="yes"/>
      <point x="660.333" y="473"/>
      <point x="650.833" y="488.667"/>
      <point x="636.5" y="502" type="curve" smooth="yes"/>
      <point x="622.167" y="515.333"/>
      <point x="602.833" y="525.667"/>
      <point x="578.5" y="533" type="curve" smooth="yes"/>
      <point x="554.167" y="540.333"/>
      <point x="524" y="544"/>
      <point x="488" y="544" type="curve" smooth="yes"/>
      <point x="464.667" y="544"/>
      <point x="438.667" y="542"/>
      <point x="410" y="538" type="curve" smooth="yes"/>
      <point x="381.333" y="534"/>
      <point x="353.333" y="523.667"/>
      <point x="326" y="507" type="curve" smooth="yes"/>
      <point x="298.667" y="490.333"/>
      <point x="273.833" y="465.167"/>
      <point x="251.5" y="431.5" type="curve" smooth="yes"/>
      <point x="229.167" y="397.833"/>
      <point x="212.667" y="351.667"/>
      <point x="202" y="293" type="curve" smooth="yes"/>
      <point x="194.667" y="251"/>
      <point x="196.833" y="216.167"/>
      <point x="208.5" y="188.5" type="curve" smooth="yes"/>
      <point x="220.167" y="160.833"/>
      <point x="235.667" y="138.833"/>
      <point x="255" y="122.5" type="curve" smooth="yes"/>
      <point x="274.333" y="106.167"/>
      <point x="295" y="94.6667"/>
      <point x="317" y="88" type="curve" smooth="yes"/>
      <point x="339" y="81.3333"/>
      <point x="356.333" y="78"/>
      <point x="369" y="78" type="curve" smooth="yes"/>
      <point x="379.667" y="78"/>
      <point x="391.833" y="79.5"/>
      <point x="405.5" y="82.5" type="curve" smooth="yes"/>
      <point x="419.167" y="85.5"/>
      <point x="432.667" y="88.6667"/>
      <point x="446" y="92" type="curve" smooth="yes"/>
      <point x="460.667" y="96"/>
      <point x="476" y="101"/>
      <point x="492" y="107" type="curve" smooth="no"/>
      <point x="557" y="31" type="line" smooth="no"/>
      <point x="540.333" y="17.6667"/>
      <point x="521.667" y="6"/>
      <point x="501" y="-4" type="curve" smooth="yes"/>
      <point x="483" y="-12.6667"/>
      <point x="461.833" y="-20.5"/>
      <point x="437.5" y="-27.5" type="curve" smooth="yes"/>
      <point x="413.167" y="-34.5"/>
      <point x="386" y="-38"/>
      <point x="356" y="-38" type="curve" smooth="yes"/>
      <point x="306" y="-38"/>
      <point x="260.667" y="-28"/>
      <point x="220" y="-8" type="curve" smooth="yes"/>
      <point x="179.333" y="12"/>
      <point x="145.667" y="38.8333"/>
      <point x="119" y="72.5" type="curve" smooth="yes"/>
      <point x="92.3333" y="106.167"/>
      <point x="73.5" y="144.667"/>
      <point x="62.5" y="188" type="curve" smooth="yes"/>
      <point x="51.5" y="231.333"/>
      <point x="50.6667" y="276.333"/>
      <point x="60" y="323" type="curve" smooth="yes"/>
      <point x="82.6667" y="439.667"/>
      <point x="128.5" y="528"/>
      <point x="197.5" y="588" type="curve" smooth="yes"/>
      <point x="266.5" y="648"/>
      <point x="362.667" y="678"/>
    </contour>
  </outline>
</glyph>
<glyph name="uni0041" format="1">
  <advance width="497"/>
  <unicode hex="0041"/>
  <outline>
    <contour>
      <point x="217.04" y="211.2" type="line" smooth="no"/>
      <point x="284.24" y="213.12" type="line" smooth="no"/>
      <point x="248.722" y="337.92" type="line" smooth="no"/>
    </contour>
    <contour>
      <point x="312.08" y="669.12" type="line" smooth="no"/>
      <point x="482" y="0" type="line" smooth="no"/>
      <point x="332.24" y="0" type="line" smooth="no"/>
      <point x="305.36" y="109.44" type="line" smooth="no"/>
      <point x="192.08" y="107.52" type="line" smooth="no"/>
      <point x="167.12" y="0" type="line" smooth="no"/>
      <point x="15.4404" y="0" type="line" smooth="no"/>
      <point x="186.32" y="668.16" type="line" smooth="no"/>
    </contour>
  </outline>
</glyph>
<glyph name="uni0045" format="1">
  <advance width="440"/>
  <unicode hex="0045"/>
  <outline>
    <contour>
      <point x="70" y="667" type="line" smooth="no"/>
      <point x="375" y="668" type="line" smooth="no"/>
      <point x="373" y="545" type="line" smooth="no"/>
      <point x="218" y="541" type="line" smooth="no"/>
      <point x="219" y="415" type="line" smooth="no"/>
      <point x="375" y="415" type="line" smooth="no"/>
      <point x="373" y="284" type="line" smooth="no"/>
      <point x="219" y="280" type="line" smooth="no"/>
      <point x="219" y="127" type="line" smooth="no"/>
      <point x="375" y="125" type="line" smooth="no"/>
      <point x="371" y="0" type="line" smooth="no"/>
      <point x="71" y="0" type="line" smooth="no"/>
    </contour>
  </outline>
</glyph>
<glyph name="uni0047" format="1">
  <advance width="501"/>
  <unicode hex="0047"/>
  <outline>
    <contour>
      <point x="65.0068" y="509.76" type="curve" smooth="no"/>
      <point x="65.0068" y="165.12" type="line" smooth="no"/>
      <point x="65.0068" y="165.12"/>
      <point x="65.0068" y="0"/>
      <point x="230.127" y="0" type="curve" smooth="yes"/>
      <point x="445.167" y="0"/>
      <point x="439.407" y="153.6"/>
      <point x="439.407" y="154.56" type="curve" smooth="no"/>
      <point x="440.367" y="316.8" type="line" smooth="no"/>
      <point x="260.847" y="316.8" type="line" smooth="no"/>
      <point x="260.847" y="213.12" type="line" smooth="no"/>
      <point x="299.247" y="213.12" type="line" smooth="no"/>
      <point x="299.247" y="210.24"/>
      <point x="308.847" y="134.4"/>
      <point x="253.167" y="134.4" type="curve" smooth="yes"/>
      <point x="208.966" y="134.4"/>
      <point x="209.007" y="190.08"/>
      <point x="209.007" y="190.08" type="curve" smooth="no"/>
      <point x="209.007" y="477.12" type="line" smooth="no"/>
      <point x="209.967" y="477.12"/>
      <point x="205.167" y="532.8"/>
      <point x="251.247" y="532.8" type="curve" smooth="yes"/>
      <point x="306.927" y="532.8"/>
      <point x="296.367" y="438.72"/>
      <point x="297.327" y="438.72" type="curve" smooth="no"/>
      <point x="444.207" y="432" type="line" smooth="no"/>
      <point x="444.207" y="432.96"/>
      <point x="477.807" y="668.16"/>
      <point x="254.127" y="668.16" type="curve" smooth="no"/>
      <point x="65.0068" y="668.16"/>
      <point x="65.0068" y="509.76"/>
    </contour>
  </outline>
</glyph>
<glyph name="uni0048" format="1">
  <advance width="504"/>
  <unicode hex="0048"/>
  <outline>
    <contour>
      <point x="80.3203" y="666.24" type="line" smooth="no"/>
      <point x="216.64" y="665.28" type="line" smooth="no"/>
      <point x="214.72" y="397.44" type="line" smooth="no"/>
      <point x="293.44" y="399.36" type="line" smooth="no"/>
      <point x="295.36" y="668.16" type="line" smooth="no"/>
      <point x="424" y="664.32" type="line" smooth="no"/>
      <point x="419.2" y="0" type="line" smooth="no"/>
      <point x="293.44" y="0" type="line" smooth="no"/>
      <point x="289.6" y="264.96" type="line" smooth="no"/>
      <point x="216.64" y="266.88" type="line" smooth="no"/>
      <point x="212.8" y="0" type="line" smooth="no"/>
      <point x="80.3203" y="0" type="line" smooth="no"/>
    </contour>
  </outline>
</glyph>
<glyph name="uni0049" format="1">
  <advance width="244"/>
  <unicode hex="0049"/>
  <outline>
    <contour>
      <point x="50" y="666.24" type="line" smooth="no"/>
      <point x="194" y="666.24" type="line" smooth="no"/>
      <point x="180.56" y="0" type="line" smooth="no"/>
      <point x="50" y="0" type="line" smooth="no"/>
    </contour>
  </outline>
</glyph>
<glyph name="uni004A" format="1">
  <advance width="465"/>
  <unicode hex="004a"/>
  <outline>
    <contour>
      <point x="156.457" y="272.64" type="line" smooth="no"/>
      <point x="156.457" y="192" type="line" smooth="no"/>
      <point x="156.457" y="192"/>
      <point x="160.297" y="151.68"/>
      <point x="196.776" y="151.68" type="curve" smooth="yes"/>
      <point x="252.457" y="151.68"/>
      <point x="248.617" y="220.8"/>
      <point x="248.617" y="220.8" type="curve" smooth="no"/>
      <point x="250.537" y="541.44" type="line" smooth="no"/>
      <point x="158.377" y="541.44" type="line" smooth="no"/>
      <point x="158.377" y="668.16" type="line" smooth="no"/>
      <point x="384.937" y="668.16" type="line" smooth="no"/>
      <point x="384.937" y="182.4" type="line" smooth="no"/>
      <point x="384.937" y="130.56"/>
      <point x="361.896" y="0"/>
      <point x="196.776" y="0" type="curve" smooth="no"/>
      <point x="8.61719" y="0"/>
      <point x="20.1367" y="193.92"/>
      <point x="20.1367" y="193.92" type="curve" smooth="no"/>
      <point x="20.1367" y="274.56" type="line" smooth="no"/>
    </contour>
  </outline>
</glyph>
<glyph name="uni0051" format="1">
  <advance width="557"/>
  <unicode hex="0051"/>
  <outline>
    <contour>
      <point x="219.04" y="233.28" type="line" smooth="no"/>
      <point x="326.561" y="230.4" type="line" smooth="no"/>
      <point x="325.601" y="466.56" type="line" smooth="no"/>
      <point x="325.601" y="466.56"/>
      <point x="330.4" y="553.92"/>
      <point x="284.32" y="552.96" type="curve" smooth="no"/>
      <point x="239.2" y="552.96"/>
      <point x="218.08" y="504.96"/>
      <point x="218.08" y="430.08" type="curve" smooth="no"/>
    </contour>
    <contour>
      <point x="50.0801" y="478.08" type="line" smooth="no"/>
      <point x="50.0801" y="517.44"/>
      <point x="133.598" y="692.16"/>
      <point x="327.521" y="692.16" type="curve" smooth="no"/>
      <point x="361.12" y="692.16"/>
      <point x="465.761" y="672"/>
      <point x="465.761" y="546.24" type="curve" smooth="no"/>
      <point x="447.521" y="165.12" type="line" smooth="no"/>
      <point x="532" y="45.1201" type="line" smooth="no"/>
      <point x="407.2" y="1.91992" type="line" smooth="no"/>
      <point x="366.88" y="49.9199" type="line" smooth="no"/>
      <point x="366.88" y="49.9199"/>
      <point x="324.641" y="0"/>
      <point x="216.16" y="0.959961" type="curve" smooth="yes"/>
      <point x="89.4453" y="2.08105"/>
      <point x="50.0801" y="119.04"/>
      <point x="50.0801" y="120.96" type="curve" smooth="no"/>
    </contour>
  </outline>
</glyph>
<glyph name="uni0052" format="1">
  <advance width="521"/>
  <unicode hex="0052"/>
  <outline>
    <contour>
      <point x="297.2" y="437.76" type="curve" smooth="yes"/>
      <point x="297.2" y="482.88" type="line" smooth="no"/>
      <point x="297.2" y="528.96"/>
      <point x="296.24" y="522.24"/>
      <point x="218.479" y="522.24" type="curve" smooth="no"/>
      <point x="218.479" y="0" type="line" smooth="no"/>
      <point x="80.2402" y="0" type="line" smooth="no"/>
      <point x="82.1602" y="667.2" type="line" smooth="no"/>
      <point x="324.08" y="667.2" type="line" smooth="yes"/>
      <point x="403.76" y="667.2"/>
      <point x="446" y="607.68"/>
      <point x="446" y="561.6" type="curve" smooth="no"/>
      <point x="446" y="410.88" type="line" smooth="yes"/>
      <point x="446" y="357.12"/>
      <point x="401.84" y="320.64"/>
      <point x="399.92" y="320.64" type="curve" smooth="yes"/>
      <point x="392.24" y="320.64"/>
      <point x="446" y="308.16"/>
      <point x="445.04" y="220.8" type="curve" smooth="no"/>
      <point x="445.04" y="0" type="line" smooth="no"/>
      <point x="304.88" y="0" type="line" smooth="no"/>
      <point x="305.629" y="88.7324"/>
      <point x="306.8" y="191.04"/>
      <point x="306.8" y="227.52" type="curve" smooth="yes"/>
      <point x="306.8" y="259.2"/>
      <point x="297.68" y="291.84"/>
      <point x="237.2" y="279.36" type="curve" smooth="no"/>
      <point x="237.2" y="398.4" type="line" smooth="no"/>
      <point x="273.68" y="398.4"/>
      <point x="297.2" y="395.52"/>
    </contour>
  </outline>
</glyph>
<glyph name="uni005A" format="1">
  <advance width="463"/>
  <unicode hex="005a"/>
  <outline>
    <contour>
      <point x="74.3193" y="670.08" type="line" smooth="no"/>
      <point x="58.96" y="556.8" type="line" smooth="no"/>
      <point x="256.72" y="551.04" type="line" smooth="no"/>
      <point x="50.3193" y="111.36" type="line" smooth="no"/>
      <point x="39.7598" y="0" type="line" smooth="no"/>
      <point x="398.8" y="0" type="line" smooth="no"/>
      <point x="402.64" y="144" type="line" smooth="no"/>
      <point x="219.279" y="148.8" type="line" smooth="no"/>
      <point x="416.08" y="551.04" type="line" smooth="no"/>
      <point x="418" y="670.08" type="line" smooth="no"/>
    </contour>
  </outline>
</glyph>
<glyph name="backslash" format="1">
  <advance width="453"/>
  <unicode hex="005c"/>
  <outline>
    <contour>
      <point x="20" y="684" type="line" smooth="no"/>
      <point x="277" y="-1" type="line" smooth="no"/>
      <point x="423" y="1" type="line" smooth="no"/>
      <point x="162" y="684" type="line" smooth="no"/>
    </contour>
  </outline>
</glyph>
<glyph name="uni0064" format="1">
  <advance width="459"/>
  <unicode hex="0064"/>
  <outline>
    <contour>
      <point x="70" y="497.127" type="line" smooth="no"/>
      <point x="72.8477" y="0" type="line" smooth="no"/>
      <point x="225.262" y="0" type="line" smooth="no"/>
      <point x="296.485" y="0"/>
      <point x="403.317" y="-11.3955"/>
      <point x="404.741" y="142.443" type="curve" smooth="no"/>
      <point x="409.726" y="346.849" type="line" smooth="no"/>
      <point x="410.439" y="437.3"/>
      <point x="397.619" y="501.399"/>
      <point x="216.717" y="501.399" type="curve" smooth="no"/>
      <point x="213.868" y="368.927" type="line" smooth="no"/>
      <point x="272.269" y="368.927"/>
      <point x="282.241" y="370.352"/>
      <point x="282.241" y="310.525" type="curve" smooth="no"/>
      <point x="282.241" y="243.578"/>
      <point x="277.968" y="199.42"/>
      <point x="277.968" y="199.42" type="curve" smooth="no"/>
      <point x="272.269" y="123.213"/>
      <point x="234.068" y="138.17"/>
      <point x="193.472" y="142.443" type="curve" smooth="yes"/>
      <point x="192.053" y="142.593"/>
      <point x="197.033" y="501.399"/>
      <point x="197.746" y="501.399" type="curve" smooth="no"/>
    </contour>
  </outline>
</glyph>
<glyph name="uni0065" format="1">
  <advance width="372"/>
  <unicode hex="0065"/>
  <outline>
    <contour>
      <point x="70" y="498.551" type="line" smooth="no"/>
      <point x="72.8486" y="2.84863" type="line" smooth="no"/>
      <point x="306.455" y="-1.4248" type="line" smooth="no"/>
      <point x="307.879" y="106.832" type="line" smooth="no"/>
      <point x="198.199" y="106.832" type="line" smooth="no"/>
      <point x="198.199" y="193.723" type="line" smooth="no"/>
      <point x="307.879" y="197.995" type="line" smooth="no"/>
      <point x="307.879" y="300.555" type="line" smooth="no"/>
      <point x="198.199" y="300.555" type="line" smooth="no"/>
      <point x="198.199" y="395.991" type="line" smooth="no"/>
      <point x="307.879" y="395.991" type="line" smooth="no"/>
      <point x="307.879" y="502.824" type="line" smooth="no"/>
    </contour>
  </outline>
</glyph>
<glyph name="uni0068" format="1">
  <advance width="480"/>
  <unicode hex="0068"/>
  <outline>
    <contour>
      <point x="79.5029" y="498.551" type="line" smooth="no"/>
      <point x="79.5029" y="0" type="line" smooth="no"/>
      <point x="204.852" y="0" type="line" smooth="no"/>
      <point x="204.852" y="233.606" type="line" smooth="no"/>
      <point x="268.952" y="235.031" type="line" smooth="no"/>
      <point x="277.499" y="0" type="line" smooth="no"/>
      <point x="400" y="0" type="line" smooth="no"/>
      <point x="400" y="497.127" type="line" smooth="no"/>
      <point x="283.196" y="498.551" type="line" smooth="no"/>
      <point x="281.772" y="361.805" type="line" smooth="no"/>
      <point x="216.249" y="360.381" type="line" smooth="no"/>
      <point x="214.824" y="501.399" type="line" smooth="no"/>
    </contour>
  </outline>
</glyph>
<glyph name="uni006B" format="1">
  <advance width="455"/>
  <unicode hex="006b"/>
  <outline>
    <contour>
      <point x="79.71" y="501.737" type="line" smooth="no"/>
      <point x="79.71" y="-1.79297" type="line" smooth="no"/>
      <point x="197.566" y="-1.79297" type="line" smooth="no"/>
      <point x="204.005" y="204.198" type="line" smooth="no"/>
      <point x="290.548" y="-1.79297" type="line" smooth="no"/>
      <point x="419.278" y="-1.79297" type="line" smooth="no"/>
      <point x="303.409" y="291.455" type="line" smooth="no"/>
      <point x="424.999" y="418.769" type="line" smooth="no"/>
      <point x="347.052" y="508.891" type="line" smooth="no"/>
      <point x="201.858" y="359.403" type="line" smooth="no"/>
      <point x="201.858" y="504.599" type="line" smooth="no"/>
    </contour>
  </outline>
</glyph>
<glyph name="uni006C" format="1">
  <advance width="340"/>
  <unicode hex="006c"/>
  <outline>
    <contour>
      <point x="82.8467" y="498.551" type="line" smooth="no"/>
      <point x="79.9971" y="0" type="line" smooth="no"/>
      <point x="320.727" y="2.84863" type="line" smooth="no"/>
      <point x="325" y="136.746" type="line" smooth="no"/>
      <point x="211.046" y="135.321" type="line" smooth="no"/>
      <point x="212.47" y="498.551" type="line" smooth="no"/>
    </contour>
  </outline>
</glyph>
<glyph name="uni006D" format="1">
  <advance width="545"/>
  <unicode hex="006d"/>
  <outline>
    <contour>
      <point x="81.8281" y="499.976" type="line" smooth="no"/>
      <point x="80.4043" y="0" type="line" smooth="no"/>
      <point x="210.026" y="0" type="line" smooth="no"/>
      <point x="208.603" y="267.793" type="line" smooth="no"/>
      <point x="275.551" y="213.664" type="line" smooth="no"/>
      <point x="328.254" y="270.642" type="line" smooth="no"/>
      <point x="338.225" y="0" type="line" smooth="no"/>
      <point x="465" y="2.84863" type="line" smooth="no"/>
      <point x="459.303" y="501.399" type="line" smooth="no"/>
      <point x="328.254" y="501.399" type="line" smooth="no"/>
      <point x="274.127" y="398.84" type="line" smooth="no"/>
      <point x="205.754" y="499.976" type="line" smooth="no"/>
    </contour>
  </outline>
</glyph>
<glyph name="uni006F" format="1">
  <advance width="430"/>
  <unicode hex="006f"/>
  <outline>
    <contour>
      <point x="239.133" y="505.673" type="line" smooth="no"/>
      <point x="239.133" y="505.673"/>
      <point x="39.5908" y="545.557"/>
      <point x="39.5908" y="272.066" type="curve" smooth="yes"/>
      <point x="39.5908" y="29.9131"/>
      <point x="146.423" y="-9.9707"/>
      <point x="213.371" y="-5.69727" type="curve" smooth="yes"/>
      <point x="308.657" y="0.383789"/>
      <point x="390" y="37.0361"/>
      <point x="390" y="246.427" type="curve" smooth="no"/>
      <point x="390" y="354.683"/>
      <point x="384.304" y="475.76"/>
      <point x="256.104" y="505.673" type="curve" smooth="no"/>
      <point x="256.104" y="141.019" type="line" smooth="no"/>
      <point x="256.104" y="141.019"/>
      <point x="246.133" y="122.501"/>
      <point x="219.068" y="122.501" type="curve" smooth="yes"/>
      <point x="182.034" y="122.501"/>
      <point x="184.883" y="148.141"/>
      <point x="184.883" y="148.141" type="curve" smooth="no"/>
      <point x="184.883" y="347.561" type="line" smooth="no"/>
      <point x="184.883" y="346.137"/>
      <point x="187.731" y="381.747"/>
      <point x="214.795" y="381.747" type="curve" smooth="yes"/>
      <point x="233.667" y="381.747"/>
      <point x="239" y="373.333"/>
      <point x="239.133" y="373.2" type="curve" smooth="no"/>
    </contour>
  </outline>
</glyph>
<glyph name="uni0070" format="1">
  <advance width="420"/>
  <unicode hex="0070"/>
  <outline>
    <contour>
      <point x="214.126" y="395.991" type="curve" smooth="no"/>
      <point x="212.702" y="321.922" type="line" smooth="no"/>
      <point x="212.702" y="321.922"/>
      <point x="273.952" y="309.101"/>
      <point x="273.952" y="367.503" type="curve" smooth="yes"/>
      <point x="273.952" y="405.963"/>
      <point x="251.162" y="395.991"/>
    </contour>
    <contour>
      <point x="83.0791" y="498.551" type="line" smooth="no"/>
      <point x="333.779" y="498.551"/>
      <point x="405" y="537.01"/>
      <point x="405" y="358.956" type="curve" smooth="no"/>
      <point x="405" y="217.938"/>
      <point x="301.017" y="223.635"/>
      <point x="212.702" y="223.635" type="curve" smooth="no"/>
      <point x="216.975" y="0" type="line" smooth="no"/>
      <point x="80.2295" y="0" type="line" smooth="no"/>
    </contour>
  </outline>
</glyph>
<glyph name="uni0072" format="1">
  <advance width="448"/>
  <unicode hex="0072"/>
  <outline>
    <contour>
      <point x="259.801" y="353.259" type="curve" smooth="no"/>
      <point x="259.801" y="394.566"/>
      <point x="247.693" y="390.293"/>
      <point x="202.824" y="390.293" type="curve" smooth="no"/>
      <point x="202.824" y="321.922" type="line" smooth="no"/>
      <point x="233.449" y="321.922"/>
      <point x="259.801" y="315.512"/>
    </contour>
    <contour>
      <point x="349.54" y="254.973" type="curve" smooth="no"/>
      <point x="349.54" y="254.261"/>
      <point x="388" y="224.349"/>
      <point x="388" y="188.737" type="curve" smooth="no"/>
      <point x="388" y="0" type="line" smooth="no"/>
      <point x="269.772" y="0" type="line" smooth="no"/>
      <point x="269.495" y="68.0518"/>
      <point x="269.06" y="123.213"/>
      <point x="269.06" y="174.493" type="curve" smooth="yes"/>
      <point x="269.06" y="217.463"/>
      <point x="241.283" y="210.815"/>
      <point x="201.399" y="210.815" type="curve" smooth="no"/>
      <point x="201.399" y="0" type="line" smooth="no"/>
      <point x="80.3223" y="0" type="line" smooth="no"/>
      <point x="80.3223" y="499.976" type="line" smooth="no"/>
      <point x="271.196" y="499.976" type="line" smooth="yes"/>
      <point x="369.482" y="499.976"/>
      <point x="388" y="410.948"/>
      <point x="388" y="368.927" type="curve" smooth="no"/>
      <point x="388" y="279.9"/>
      <point x="349.54" y="254.973"/>
    </contour>
  </outline>
</glyph>
<glyph name="uni0073" format="1">
  <advance width="384"/>
  <unicode hex="0073"/>
  <outline>
    <contour>
      <point x="31.4609" y="377.474" type="curve" smooth="no"/>
      <point x="31.4609" y="293.433" type="line" smooth="no"/>
      <point x="31.4609" y="215.089"/>
      <point x="215.212" y="229.334"/>
      <point x="215.212" y="162.385" type="curve" smooth="yes"/>
      <point x="215.212" y="162.385"/>
      <point x="220.91" y="125.35"/>
      <point x="183.875" y="125.35" type="curve" smooth="yes"/>
      <point x="132.596" y="125.35"/>
      <point x="141.143" y="175.205"/>
      <point x="141.143" y="175.205" type="curve" smooth="no"/>
      <point x="31.4609" y="175.205" type="line" smooth="no"/>
      <point x="31.4609" y="175.205"/>
      <point x="1.54785" y="0"/>
      <point x="193.846" y="0" type="curve" smooth="yes"/>
      <point x="379.021" y="0"/>
      <point x="351.958" y="168.083"/>
      <point x="351.958" y="168.083" type="curve" smooth="yes"/>
      <point x="351.958" y="293.433"/>
      <point x="159.66" y="280.612"/>
      <point x="159.66" y="341.863" type="curve" smooth="yes"/>
      <point x="159.66" y="341.863"/>
      <point x="155.387" y="377.474"/>
      <point x="200.968" y="377.474" type="curve" smooth="yes"/>
      <point x="238.004" y="377.474"/>
      <point x="233.73" y="331.893"/>
      <point x="233.73" y="331.893" type="curve" smooth="no"/>
      <point x="353.382" y="327.619" type="line" smooth="no"/>
      <point x="353.382" y="327.619"/>
      <point x="373.325" y="499.976"/>
      <point x="186.724" y="499.976" type="curve" smooth="yes"/>
      <point x="49.9785" y="499.976"/>
      <point x="31.4609" y="377.474"/>
    </contour>
  </outline>
</glyph>
<glyph name="uni0077" format="1">
  <advance width="644"/>
  <unicode hex="0077"/>
  <outline>
    <contour>
      <point x="15.0713" y="498.551" type="line" smooth="no"/>
      <point x="136.147" y="0" type="line" smooth="no"/>
      <point x="258.647" y="0" type="line" smooth="no"/>
      <point x="307.079" y="155.263" type="line" smooth="no"/>
      <point x="342.689" y="0" type="line" smooth="no"/>
      <point x="463.766" y="0" type="line" smooth="no"/>
      <point x="629" y="499.976" type="line" smooth="no"/>
      <point x="500.801" y="501.399" type="line" smooth="no"/>
      <point x="418.184" y="303.403" type="line" smooth="no"/>
      <point x="369.754" y="499.976" type="line" smooth="no"/>
      <point x="277.166" y="498.551" type="line" smooth="no"/>
      <point x="203.096" y="307.677" type="line" smooth="no"/>
      <point x="148.967" y="498.551" type="line" smooth="no"/>
    </contour>
  </outline>
</glyph>
<glyph name="z" format="1">
  <advance width="429"/>
  <unicode hex="007a"/>
  <outline>
    <contour>
      <point x="74.1143" y="502.824" type="line" smooth="no"/>
      <point x="68.417" y="373.2" type="line" smooth="no"/>
      <point x="210.859" y="380.322" type="line" smooth="no"/>
      <point x="65.5684" y="125.35" type="line" smooth="no"/>
      <point x="59.8691" y="0" type="line" smooth="no"/>
      <point x="354.728" y="7.12207" type="line" smooth="no"/>
      <point x="357.576" y="123.925" type="line" smooth="no"/>
      <point x="233.65" y="111.105" type="line" smooth="no"/>
      <point x="356.151" y="351.834" type="line" smooth="no"/>
      <point x="359" y="501.399" type="line" smooth="no"/>
    </contour>
  </outline>
</glyph>
<glyph name="asciitilde" format="1">
  <advance width="452"/>
  <unicode hex="007e"/>
  <outline>
    <contour>
      <point x="75" y="259" type="line" smooth="no"/>
      <point x="81" y="263"/>
      <point x="89.1667" y="266.5"/>
      <point x="99.5" y="269.5" type="curve" smooth="yes"/>
      <point x="109.833" y="272.5"/>
      <point x="120.167" y="275"/>
      <point x="130.5" y="277" type="curve" smooth="yes"/>
      <point x="140.833" y="279"/>
      <point x="150.333" y="280.5"/>
      <point x="159" y="281.5" type="curve" smooth="yes"/>
      <point x="167.667" y="282.5"/>
      <point x="173.333" y="283"/>
      <point x="176" y="283" type="curve" smooth="yes"/>
      <point x="189.333" y="283"/>
      <point x="202.833" y="281.667"/>
      <point x="216.5" y="279" type="curve" smooth="yes"/>
      <point x="230.167" y="276.333"/>
      <point x="244" y="273.333"/>
      <point x="258" y="270" type="curve" smooth="yes"/>
      <point x="272" y="266.667"/>
      <point x="286.333" y="263.667"/>
      <point x="301" y="261" type="curve" smooth="yes"/>
      <point x="315.667" y="258.333"/>
      <point x="330.667" y="257"/>
      <point x="346" y="257" type="curve" smooth="yes"/>
      <point x="359.333" y="257"/>
      <point x="370.167" y="259.667"/>
      <point x="378.5" y="265" type="curve" smooth="yes"/>
      <point x="386.833" y="270.333"/>
      <point x="394.667" y="275"/>
      <point x="402" y="279" type="curve" smooth="no"/>
      <point x="380" y="147" type="line" smooth="no"/>
      <point x="355" y="138" type="line" smooth="no"/>
      <point x="334" y="132.5" type="line" smooth="no"/>
      <point x="317" y="130" type="line" smooth="no"/>
      <point x="305" y="130"/>
      <point x="292.333" y="131.5"/>
      <point x="279" y="134.5" type="curve" smooth="yes"/>
      <point x="265.667" y="137.5"/>
      <point x="251.833" y="141"/>
      <point x="237.5" y="145" type="curve" smooth="yes"/>
      <point x="223.167" y="149"/>
      <point x="208.5" y="152.5"/>
      <point x="193.5" y="155.5" type="curve" smooth="yes"/>
      <point x="178.5" y="158.5"/>
      <point x="164" y="160"/>
      <point x="150" y="160" type="curve" smooth="yes"/>
      <point x="136" y="160"/>
      <point x="123.167" y="158.667"/>
      <point x="111.5" y="156" type="curve" smooth="yes"/>
      <point x="99.8333" y="153.333"/>
      <point x="89.6667" y="150.333"/>
      <point x="81" y="147" type="curve" smooth="yes"/>
      <point x="71" y="143"/>
      <point x="62" y="138.667"/>
      <point x="54" y="134" type="curve" smooth="no"/>
    </contour>
  </outline>
</glyph>
<glyph name="yen" format="1">
  <advance width="627"/>
  <unicode hex="00a5"/>
  <outline>
    <contour>
      <point x="55.04" y="666.24" type="line" smooth="no"/>
      <point x="218.24" y="668.16" type="line" smooth="no"/>
      <point x="314.24" y="489.6" type="line" smooth="no"/>
      <point x="408.32" y="668.16" type="line" smooth="no"/>
      <point x="567.68" y="662.4" type="line" smooth="no"/>
      <point x="451.503" y="456" type="line" smooth="no"/>
      <point x="499.16" y="456" type="line" smooth="no"/>
      <point x="499" y="343" type="line" smooth="no"/>
      <point x="387.735" y="342.71" type="line" smooth="no"/>
      <point x="387.2" y="341.76" type="line" smooth="no"/>
      <point x="387.2" y="303" type="line" smooth="no"/>
      <point x="499.16" y="303" type="line" smooth="no"/>
      <point x="499" y="191" type="line" smooth="no"/>
      <point x="387.2" y="190.709" type="line" smooth="no"/>
      <point x="387.2" y="0" type="line" smooth="no"/>
      <point x="237.44" y="0" type="line" smooth="no"/>
      <point x="237.44" y="190.319" type="line" smooth="no"/>
      <point x="115" y="190" type="line" smooth="no"/>
      <point x="115" y="303" type="line" smooth="no"/>
      <point x="237.44" y="303" type="line" smooth="no"/>
      <point x="237.44" y="342.319" type="line" smooth="no"/>
      <point x="115" y="342" type="line" smooth="no"/>
      <point x="115" y="456" type="line" smooth="no"/>
      <point x="173.926" y="456" type="line" smooth="no"/>
    </contour>
  </outline>
</glyph>
<glyph name="guillemotright" format="1">
  <advance width="572"/>
  <unicode hex="00bb"/>
  <outline>
    <contour>
      <point x="194" y="0" type="line" smooth="no"/>
      <point x="54" y="0" type="line" smooth="no"/>
      <point x="152" y="195" type="line" smooth="no"/>
      <point x="44" y="399" type="line" smooth="no"/>
      <point x="188" y="399" type="line" smooth="no"/>
      <point x="298" y="211" type="line" smooth="no"/>
      <point x="350" y="211" type="line" smooth="no"/>
      <point x="264" y="400" type="line" smooth="no"/>
      <point x="404" y="400" type="line" smooth="no"/>
      <point x="502" y="196" type="line" smooth="no"/>
      <point x="407" y="0" type="line" smooth="no"/>
      <point x="260" y="0" type="line" smooth="no"/>
      <point x="342" y="174" type="line" smooth="no"/>
      <point x="291" y="174" type="line" smooth="no"/>
    </contour>
  </outline>
</glyph>
<glyph name="onequarter" format="1">
  <advance width="678"/>
  <unicode hex="00bc"/>
  <outline>
    <contour>
      <point x="504.144" y="290.304" type="line" smooth="no"/>
      <point x="440.208" y="183.168" type="line" smooth="no"/>
      <point x="504.72" y="183.168" type="line" smooth="no"/>
    </contour>
    <contour>
      <point x="498.96" y="406.656" type="line" smooth="no"/>
      <point x="593.424" y="406.08" type="line" smooth="no"/>
      <point x="592.272" y="179.712" type="line" smooth="no"/>
      <point x="631.44" y="178.56" type="line" smooth="no"/>
      <point x="629.136" y="93.3115" type="line" smooth="no"/>
      <point x="592.272" y="93.3115" type="line" smooth="no"/>
      <point x="592.272" y="0" type="line" smooth="no"/>
      <point x="509.328" y="0" type="line" smooth="no"/>
      <point x="508.176" y="94.4639" type="line" smooth="no"/>
      <point x="359.568" y="94.4639" type="line" smooth="no"/>
      <point x="358.416" y="176.256" type="line" smooth="no"/>
    </contour>
    <contour>
      <point x="21.2236" y="498.12" type="line" smooth="no"/>
      <point x="21.2236" y="577.608" type="line" smooth="no"/>
      <point x="93.7998" y="685.896" type="line" smooth="no"/>
      <point x="169.832" y="687.048" type="line" smooth="no"/>
      <point x="172.288" y="332" type="line" smooth="no"/>
      <point x="84.7363" y="332" type="line" smooth="no"/>
      <point x="85.7363" y="538.44" type="line" smooth="no"/>
    </contour>
    <contour>
      <point x="558" y="684" type="line" smooth="no"/>
      <point x="184" y="-1" type="line" smooth="no"/>
      <point x="60" y="1" type="line" smooth="no"/>
      <point x="438" y="684" type="line" smooth="no"/>
    </contour>
  </outline>
</glyph>
<glyph name="onehalf" format="1">
  <advance width="678"/>
  <unicode hex="00bd"/>
  <outline>
    <contour>
      <point x="21.2236" y="498.12" type="line" smooth="no"/>
      <point x="21.2236" y="577.608" type="line" smooth="no"/>
      <point x="93.7998" y="685.896" type="line" smooth="no"/>
      <point x="169.832" y="687.048" type="line" smooth="no"/>
      <point x="172.288" y="332" type="line" smooth="no"/>
      <point x="84.7363" y="332" type="line" smooth="no"/>
      <point x="85.7363" y="538.44" type="line" smooth="no"/>
    </contour>
    <contour>
      <point x="631.24" y="0" type="line" smooth="no"/>
      <point x="631.816" y="76.0322" type="line" smooth="no"/>
      <point x="505.672" y="76.0322" type="line" smooth="yes"/>
      <point x="505.672" y="120.96"/>
      <point x="632.968" y="202.176"/>
      <point x="632.968" y="299.52" type="curve" smooth="yes"/>
      <point x="632.968" y="351.36"/>
      <point x="601.864" y="406.08"/>
      <point x="541.96" y="406.08" type="curve" smooth="yes"/>
      <point x="411.784" y="406.08"/>
      <point x="421.576" y="266.112"/>
      <point x="421" y="266.112" type="curve" smooth="no"/>
      <point x="493.576" y="262.656" type="line" smooth="no"/>
      <point x="493.576" y="262.656"/>
      <point x="487.816" y="319.104"/>
      <point x="523.528" y="319.104" type="curve" smooth="no"/>
      <point x="551.176" y="319.104"/>
      <point x="550.024" y="286.272"/>
      <point x="550.024" y="286.272" type="curve" smooth="yes"/>
      <point x="550.024" y="209.664"/>
      <point x="407.176" y="191.232"/>
      <point x="407.176" y="33.4082" type="curve" smooth="yes"/>
      <point x="407.176" y="0" type="line" smooth="no"/>
    </contour>
    <contour>
      <point x="558" y="684" type="line" smooth="no"/>
      <point x="184" y="-1" type="line" smooth="no"/>
      <point x="60" y="1" type="line" smooth="no"/>
      <point x="438" y="684" type="line" smooth="no"/>
    </contour>
  </outline>
</glyph>
<glyph name="threequarters" format="1">
  <advance width="784"/>
  <unicode hex="00be"/>
  <outline>
    <contour>
      <point x="54.3438" y="666" type="line" smooth="no"/>
      <point x="52.04" y="585.359" type="line" smooth="no"/>
      <point x="141.896" y="585.359" type="line" smooth="no"/>
      <point x="57.7998" y="494.352" type="line" smooth="no"/>
      <point x="110.792" y="440.207" type="line" smooth="no"/>
      <point x="110.792" y="440.783"/>
      <point x="136.136" y="466.128"/>
      <point x="159.176" y="466.128" type="curve" smooth="no"/>
      <point x="189.704" y="466.128"/>
      <point x="189.81" y="437.8"/>
      <point x="189.128" y="437.903" type="curve" smooth="no"/>
      <point x="189.128" y="384.336" type="line" smooth="no"/>
      <point x="189.128" y="384.336"/>
      <point x="191.432" y="353.231"/>
      <point x="161.48" y="353.231" type="curve" smooth="no"/>
      <point x="134.984" y="353.231"/>
      <point x="136.136" y="378"/>
      <point x="136.136" y="378" type="curve" smooth="no"/>
      <point x="136.136" y="396.432" type="line" smooth="no"/>
      <point x="46.2803" y="396.432" type="line" smooth="no"/>
      <point x="46.2803" y="396.432"/>
      <point x="37.6406" y="265.104"/>
      <point x="162.632" y="263.951" type="curve" smooth="yes"/>
      <point x="287.048" y="262.805"/>
      <point x="280.136" y="368.783"/>
      <point x="280.136" y="367.632" type="curve" smooth="no"/>
      <point x="277.832" y="490.896" type="line" smooth="no"/>
      <point x="277.832" y="490.896"/>
      <point x="276.104" y="532.367"/>
      <point x="205.832" y="532.367" type="curve" smooth="yes"/>
      <point x="275.528" y="599.184" type="line" smooth="no"/>
      <point x="274.376" y="666" type="line" smooth="no"/>
    </contour>
    <contour>
      <point x="610.144" y="290.304" type="line" smooth="no"/>
      <point x="546.208" y="183.168" type="line" smooth="no"/>
      <point x="610.72" y="183.168" type="line" smooth="no"/>
    </contour>
    <contour>
      <point x="604.96" y="406.656" type="line" smooth="no"/>
      <point x="699.424" y="406.08" type="line" smooth="no"/>
      <point x="698.272" y="179.712" type="line" smooth="no"/>
      <point x="737.44" y="178.56" type="line" smooth="no"/>
      <point x="735.136" y="93.3115" type="line" smooth="no"/>
      <point x="698.272" y="93.3115" type="line" smooth="no"/>
      <point x="698.272" y="0" type="line" smooth="no"/>
      <point x="615.328" y="0" type="line" smooth="no"/>
      <point x="614.176" y="94.4639" type="line" smooth="no"/>
      <point x="465.568" y="94.4639" type="line" smooth="no"/>
      <point x="464.416" y="176.256" type="line" smooth="no"/>
    </contour>
    <contour>
      <point x="664" y="684" type="line" smooth="no"/>
      <point x="290" y="-1" type="line" smooth="no"/>
      <point x="166" y="1" type="line" smooth="no"/>
      <point x="544" y="684" type="line" smooth="no"/>
    </contour>
  </outline>
</glyph>
<glyph name="questiondown" format="1">
  <advance width="487"/>
  <unicode hex="00bf"/>
  <outline>
    <contour>
      <point x="197.721" y="542.8" type="line" smooth="no"/>
      <point x="134.721" y="542.8" type="line" smooth="no"/>
      <point x="134.681" y="485.12" type="line" smooth="no"/>
      <point x="136.626" y="325.592"/>
      <point x="286.761" y="306.8"/>
      <point x="286.761" y="201.68" type="curve" smooth="no"/>
      <point x="286.761" y="201.68"/>
      <point x="288.653" y="145.388"/>
      <point x="242.601" y="146.96" type="curve" smooth="yes"/>
      <point x="188.721" y="148.8"/>
      <point x="189.681" y="218.04"/>
      <point x="189.681" y="218.04" type="curve" smooth="no"/>
      <point x="80.7207" y="171.8" type="line" smooth="yes"/>
      <point x="79.8379" y="171.407"/>
      <point x="69.7207" y="2"/>
      <point x="266.32" y="2" type="curve" smooth="yes"/>
      <point x="366.16" y="2"/>
      <point x="427" y="93.2002"/>
      <point x="427" y="179.6" type="curve" smooth="yes"/>
      <point x="427" y="341.84"/>
      <point x="273.841" y="388.8"/>
      <point x="273.841" y="464.08" type="curve" smooth="yes"/>
      <point x="273.841" y="542.8" type="line" smooth="no"/>
      <point x="210.721" y="542.8" type="line" smooth="no"/>
      <point x="210.721" y="574.8" type="line" smooth="no"/>
      <point x="275.721" y="574.8" type="line" smooth="no"/>
      <point x="274.721" y="695.8" type="line" smooth="no"/>
      <point x="135.721" y="695.8" type="line" smooth="no"/>
      <point x="135.721" y="574.8" type="line" smooth="no"/>
      <point x="197.721" y="574.8" type="line" smooth="no"/>
    </contour>
  </outline>
</glyph>
<glyph name="Aacute" format="1">
  <advance width="507"/>
  <unicode hex="00c1"/>
  <outline>
    <contour>
      <point x="209" y="668.478" type="line" smooth="no"/>
      <point x="269" y="765" type="line" smooth="no"/>
      <point x="395" y="765" type="line" smooth="no"/>
      <point x="317" y="667" type="line" smooth="no"/>
      <point x="487" y="0" type="line" smooth="no"/>
      <point x="337.24" y="0" type="line" smooth="no"/>
      <point x="310.36" y="109.44" type="line" smooth="no"/>
      <point x="197.08" y="107.52" type="line" smooth="no"/>
      <point x="172.12" y="0" type="line" smooth="no"/>
      <point x="20.4395" y="0" type="line" smooth="no"/>
      <point x="191.32" y="668.16" type="line" smooth="no"/>
    </contour>
    <contour>
      <point x="222.04" y="211.2" type="line" smooth="no"/>
      <point x="289.24" y="213.12" type="line" smooth="no"/>
      <point x="253.721" y="337.92" type="line" smooth="no"/>
    </contour>
  </outline>
</glyph>
<glyph name="Ccedilla" format="1">
  <advance width="451"/>
  <unicode hex="00c7"/>
  <outline>
    <contour>
      <point x="414.658" y="445.44" type="curve" smooth="no"/>
      <point x="280.259" y="445.44" type="line" smooth="no"/>
      <point x="280.259" y="491.52" type="line" smooth="no"/>
      <point x="280.259" y="491.52"/>
      <point x="284.099" y="534.72"/>
      <point x="230.339" y="534.72" type="curve" smooth="yes"/>
      <point x="183.299" y="534.72"/>
      <point x="185.219" y="466.56"/>
      <point x="185.219" y="466.56" type="curve" smooth="no"/>
      <point x="186.179" y="199.68" type="line" smooth="no"/>
      <point x="186.179" y="199.68"/>
      <point x="182.339" y="137.28"/>
      <point x="228.419" y="137.28" type="curve" smooth="no"/>
      <point x="288.897" y="135.36"/>
      <point x="280.259" y="222.72"/>
      <point x="278.339" y="259.2" type="curve" smooth="no"/>
      <point x="408.897" y="259.2" type="line" smooth="no"/>
      <point x="408.897" y="160.32" type="line" smooth="no"/>
      <point x="408.897" y="160.32"/>
      <point x="413.644" y="29.5671"/>
      <point x="268.03" y="4.22056" type="curve" smooth="no"/>
      <point x="268.91" y="-2.01952"/>
      <point x="270.067" y="-11.7598"/>
      <point x="269.5" y="-18" type="curve" smooth="yes"/>
      <point x="268.833" y="-25.333"/>
      <point x="268.5" y="-32.667"/>
      <point x="268.5" y="-40" type="curve" smooth="no"/>
      <point x="267.167" y="-48.667"/>
      <point x="264.5" y="-56.667"/>
      <point x="260.5" y="-64" type="curve" smooth="yes"/>
      <point x="257.167" y="-70.667"/>
      <point x="251.667" y="-77.5"/>
      <point x="244" y="-84.5" type="curve" smooth="yes"/>
      <point x="236.333" y="-91.5"/>
      <point x="225.833" y="-97.333"/>
      <point x="212.5" y="-102" type="curve" smooth="no"/>
      <point x="210.5" y="-88"/>
      <point x="207.333" y="-77"/>
      <point x="203" y="-69" type="curve" smooth="yes"/>
      <point x="198.667" y="-61"/>
      <point x="194.333" y="-55.333"/>
      <point x="190" y="-52" type="curve" smooth="yes"/>
      <point x="185.667" y="-48.667"/>
      <point x="181.833" y="-46.667"/>
      <point x="178.5" y="-46" type="curve" smooth="yes"/>
      <point x="175.167" y="-45.333"/>
      <point x="173.167" y="-45"/>
      <point x="172.5" y="-45" type="curve" smooth="yes"/>
      <point x="164.5" y="-45" type="line" smooth="yes"/>
      <point x="161.833" y="-45"/>
      <point x="158.667" y="-45.167"/>
      <point x="155" y="-45.5" type="curve" smooth="yes"/>
      <point x="151.333" y="-45.833"/>
      <point x="147.833" y="-46.333"/>
      <point x="144.5" y="-47" type="curve" smooth="no"/>
      <point x="143.833" y="-43.667"/>
      <point x="143.333" y="-36.833"/>
      <point x="143" y="-26.5" type="curve" smooth="yes"/>
      <point x="142.738" y="-18.3848"/>
      <point x="143.635" y="-3.37745"/>
      <point x="147.69" y="11.522" type="curve" smooth="no"/>
      <point x="49.8584" y="48.7234"/>
      <point x="49.8584" y="163.2"/>
      <point x="49.8584" y="163.2" type="curve" smooth="no"/>
      <point x="51.7783" y="529.92" type="line" smooth="yes"/>
      <point x="51.7783" y="528.74"/>
      <point x="61.3789" y="668.16"/>
      <point x="234.179" y="668.16" type="curve" smooth="yes"/>
      <point x="443.459" y="668.16"/>
      <point x="414.658" y="445.44"/>
    </contour>
  </outline>
</glyph>
<glyph name="Ecircumflex" format="1">
  <advance width="440"/>
  <unicode hex="00ca"/>
  <outline>
    <contour>
      <point x="191.122" y="667.471" type="line" smooth="no"/>
      <point x="375" y="668" type="line" smooth="no"/>
      <point x="373" y="545" type="line" smooth="no"/>
      <point x="218" y="541" type="line" smooth="no"/>
      <point x="219" y="415" type="line" smooth="no"/>
      <point x="375" y="415" type="line" smooth="no"/>
      <point x="373" y="284" type="line" smooth="no"/>
      <point x="219" y="280" type="line" smooth="no"/>
      <point x="219" y="127" type="line" smooth="no"/>
      <point x="375" y="125" type="line" smooth="no"/>
      <point x="371" y="0" type="line" smooth="no"/>
      <point x="71" y="0" type="line" smooth="no"/>
      <point x="70" y="667" type="line" smooth="no"/>
      <point x="146.649" y="667.325" type="line" smooth="no"/>
      <point x="116" y="723" type="line" smooth="no"/>
      <point x="242" y="805.5" type="line" smooth="no"/>
      <point x="368" y="763.5" type="line" smooth="no"/>
      <point x="322" y="681.5" type="line" smooth="no"/>
      <point x="248" y="710" type="line" smooth="no"/>
    </contour>
  </outline>
</glyph>
<glyph name="Edieresis" format="1">
  <advance width="440"/>
  <unicode hex="00cb"/>
  <outline>
    <contour>
      <point x="150.299" y="667.263" type="line" smooth="yes"/>
      <point x="296.621" y="667.743" type="line" smooth="no"/>
      <point x="296.621" y="691.18" type="line" smooth="no"/>
      <point x="254.265" y="691.18" type="line" smooth="no"/>
      <point x="254.265" y="791" type="line" smooth="no"/>
      <point x="352.799" y="791" type="line" smooth="no"/>
      <point x="352" y="691.18" type="line" smooth="no"/>
      <point x="312.121" y="691.18" type="line" smooth="no"/>
      <point x="312.121" y="667.794" type="line" smooth="no"/>
      <point x="375" y="668" type="line" smooth="no"/>
      <point x="373" y="545" type="line" smooth="no"/>
      <point x="218" y="541" type="line" smooth="no"/>
      <point x="219" y="415" type="line" smooth="no"/>
      <point x="375" y="415" type="line" smooth="no"/>
      <point x="373" y="284" type="line" smooth="no"/>
      <point x="219" y="280" type="line" smooth="no"/>
      <point x="219" y="127" type="line" smooth="no"/>
      <point x="375" y="125" type="line" smooth="no"/>
      <point x="371" y="0" type="line" smooth="no"/>
      <point x="71" y="0" type="line" smooth="no"/>
      <point x="70" y="667.5" type="line" smooth="no"/>
      <point x="136.621" y="668.16" type="line" smooth="yes"/>
      <point x="136.621" y="692.18" type="line" smooth="no"/>
      <point x="94.2646" y="692.18" type="line" smooth="no"/>
      <point x="94.2646" y="792" type="line" smooth="no"/>
      <point x="192.799" y="792" type="line" smooth="no"/>
      <point x="192" y="692.18" type="line" smooth="no"/>
      <point x="152.121" y="692.18" type="line" smooth="no"/>
    </contour>
  </outline>
</glyph>
<glyph name="Igrave" format="1">
  <advance width="384"/>
  <unicode hex="00cc"/>
  <outline>
    <contour>
      <point x="242" y="666.479" type="line" smooth="no"/>
      <point x="207" y="780" type="line" smooth="no"/>
      <point x="100" y="780" type="line" smooth="no"/>
      <point x="174" y="666" type="line" smooth="no"/>
      <point x="122.24" y="666.24" type="line" smooth="no"/>
      <point x="122.24" y="0" type="line" smooth="no"/>
      <point x="252.8" y="0" type="line" smooth="no"/>
      <point x="266.24" y="666.24" type="line" smooth="no"/>
    </contour>
  </outline>
</glyph>
<glyph name="Icircumflex" format="1">
  <advance width="384"/>
  <unicode hex="00ce"/>
  <outline>
    <contour>
      <point x="259.24" y="689" type="line" smooth="no"/>
      <point x="337.24" y="652" type="line" smooth="no"/>
      <point x="380.24" y="732" type="line" smooth="no"/>
      <point x="260.24" y="783" type="line" smooth="no"/>
      <point x="132.24" y="732" type="line" smooth="no"/>
      <point x="167.586" y="666.24" type="line" smooth="no"/>
      <point x="122.24" y="666.24" type="line" smooth="no"/>
      <point x="122.24" y="0" type="line" smooth="no"/>
      <point x="252.8" y="0" type="line" smooth="no"/>
      <point x="266.24" y="666.24" type="line" smooth="no"/>
      <point x="207.569" y="666.24" type="line" smooth="no"/>
    </contour>
  </outline>
</glyph>
<glyph name="Idieresis" format="1">
  <advance width="244"/>
  <unicode hex="00cf"/>
  <outline>
    <contour>
      <point x="179.356" y="695.18" type="line" smooth="no"/>
      <point x="137" y="695.18" type="line" smooth="no"/>
      <point x="137" y="795" type="line" smooth="no"/>
      <point x="235.534" y="795" type="line" smooth="no"/>
      <point x="234.735" y="695.18" type="line" smooth="no"/>
      <point x="194.856" y="695.18" type="line" smooth="no"/>
      <point x="180.56" y="1" type="line" smooth="no"/>
      <point x="50" y="1" type="line" smooth="no"/>
      <point x="49.8564" y="696.18" type="line" smooth="no"/>
      <point x="7.5" y="696.18" type="line" smooth="no"/>
      <point x="7.5" y="796" type="line" smooth="no"/>
      <point x="106.034" y="796" type="line" smooth="no"/>
      <point x="105.235" y="696.18" type="line" smooth="no"/>
      <point x="65.3564" y="696.18" type="line" smooth="no"/>
      <point x="65.3564" y="666" type="line" smooth="no"/>
      <point x="179.5" y="666" type="line" smooth="no"/>
    </contour>
  </outline>
</glyph>
<glyph name="Eth" format="1">
  <advance width="486"/>
  <unicode hex="00d0"/>
  <outline>
    <contour>
      <point x="212.405" y="296" type="line" smooth="no"/>
      <point x="209.718" y="130.56" type="line" smooth="no"/>
      <point x="286.519" y="130.56"/>
      <point x="289.398" y="133.44"/>
      <point x="289.398" y="191.04" type="curve" smooth="no"/>
      <point x="298.037" y="503.04" type="line" smooth="no"/>
      <point x="298.037" y="545.28"/>
      <point x="286.037" y="544.32"/>
      <point x="216.438" y="544.32" type="curve" smooth="no"/>
      <point x="213.867" y="386" type="line" smooth="no"/>
      <point x="266.5" y="386" type="line" smooth="no"/>
      <point x="267.5" y="385"/>
      <point x="267" y="296.5"/>
      <point x="267" y="296" type="curve" smooth="yes"/>
    </contour>
    <contour>
      <point x="19.5" y="296" type="line" smooth="no"/>
      <point x="19" y="386" type="line" smooth="no"/>
      <point x="69.5586" y="386" type="line" smooth="no"/>
      <point x="69.5586" y="668.16" type="line" smooth="no"/>
      <point x="193.398" y="668.16" type="line" smooth="yes"/>
      <point x="461.238" y="668.16"/>
      <point x="435.318" y="640.32"/>
      <point x="435.318" y="389.76" type="curve" smooth="yes"/>
      <point x="435.318" y="-12.4805"/>
      <point x="412.278" y="0"/>
      <point x="271.158" y="0" type="curve" smooth="yes"/>
      <point x="69.5586" y="0" type="line" smooth="no"/>
      <point x="69.5586" y="296" type="line" smooth="no"/>
    </contour>
  </outline>
</glyph>
<glyph name="Ocircumflex" format="1">
  <advance width="494"/>
  <unicode hex="00d4"/>
  <outline>
    <contour>
      <point x="433.998" y="513.6" type="curve" smooth="no"/>
      <point x="433.998" y="169.92" type="line" smooth="no"/>
      <point x="433.998" y="169.92"/>
      <point x="436.878" y="-7.67923"/>
      <point x="243.918" y="-6.71973" type="curve" smooth="yes"/>
      <point x="67.2803" y="-5.84138"/>
      <point x="61.5186" y="144"/>
      <point x="61.5186" y="144" type="curve" smooth="no"/>
      <point x="59.5986" y="380.16" type="line" smooth="yes"/>
      <point x="58.6387" y="595.2"/>
      <point x="81.6777" y="643.2"/>
      <point x="205.519" y="670.08" type="curve" smooth="no"/>
      <point x="204.559" y="185.28" type="line" smooth="yes"/>
      <point x="204.559" y="163.2"/>
      <point x="211.278" y="132.48"/>
      <point x="247.758" y="132.48" type="curve" smooth="yes"/>
      <point x="279.438" y="132.48"/>
      <point x="293.838" y="152.64"/>
      <point x="293.838" y="188.16" type="curve" smooth="yes"/>
      <point x="293.838" y="496.32" type="line" smooth="yes"/>
      <point x="293.838" y="518.4"/>
      <point x="281.358" y="545.28"/>
      <point x="253.519" y="545.28" type="curve" smooth="yes"/>
      <point x="232" y="545.28"/>
      <point x="223.278" y="531.96"/>
      <point x="223.278" y="531" type="curve" smooth="yes"/>
      <point x="224.192" y="674.396" type="line" smooth="no"/>
      <point x="191.08" y="736" type="line" smooth="no"/>
      <point x="319.08" y="787" type="line" smooth="no"/>
      <point x="439.08" y="736" type="line" smooth="no"/>
      <point x="396.08" y="656" type="line" smooth="no"/>
      <point x="318.08" y="693" type="line" smooth="no"/>
      <point x="276.754" y="674.797" type="line" smooth="no"/>
      <point x="334" y="666"/>
      <point x="433.998" y="634"/>
    </contour>
  </outline>
</glyph>
<glyph name="multiply" format="1">
  <advance width="504"/>
  <unicode hex="00d7"/>
  <outline>
    <contour>
      <point x="171.28" y="386.78" type="line" smooth="no"/>
      <point x="251.891" y="306.17" type="line" smooth="no"/>
      <point x="334.027" y="388.308" type="line" smooth="no"/>
      <point x="418.768" y="303.342" type="line" smooth="no"/>
      <point x="336.036" y="220.61" type="line" smooth="no"/>
      <point x="423.01" y="133.636" type="line" smooth="no"/>
      <point x="332.5" y="44.541" type="line" smooth="no"/>
      <point x="247.647" y="129.394" type="line" smooth="no"/>
      <point x="166.33" y="48.0762" type="line" smooth="no"/>
      <point x="80.0635" y="134.343" type="line" smooth="no"/>
      <point x="161.381" y="215.66" type="line" smooth="no"/>
      <point x="80.7705" y="296.271" type="line" smooth="no"/>
    </contour>
  </outline>
</glyph>
<glyph name="Oslash" format="1">
  <advance width="494"/>
  <unicode hex="00d8"/>
  <outline>
    <contour>
      <point x="205.169" y="180.45" type="line" smooth="no"/>
      <point x="206.166" y="158.984"/>
      <point x="213.874" y="132.48"/>
      <point x="247.758" y="132.48" type="curve" smooth="yes"/>
      <point x="279.438" y="132.48"/>
      <point x="293.838" y="152.64"/>
      <point x="293.838" y="188.16" type="curve" smooth="yes"/>
      <point x="293.838" y="398.595" type="line" smooth="no"/>
      <point x="223.288" y="226" type="line" smooth="yes"/>
      <point x="223.304" y="458" type="line" smooth="yes"/>
      <point x="258.019" y="544.78" type="line" smooth="yes"/>
      <point x="237.5" y="545.5"/>
      <point x="223.278" y="534.96"/>
      <point x="223.278" y="534" type="curve" smooth="yes"/>
      <point x="223.278" y="672" type="line" smooth="no"/>
      <point x="255.293" y="672"/>
      <point x="283.532" y="667.673"/>
      <point x="308.082" y="660.148" type="curve" smooth="no"/>
      <point x="318" y="684" type="line" smooth="no"/>
      <point x="412" y="684" type="line" smooth="no"/>
      <point x="383.731" y="618.513" type="line" smooth="no"/>
      <point x="417.551" y="588.094"/>
      <point x="433.998" y="549.097"/>
      <point x="433.998" y="513.6" type="curve" smooth="yes"/>
      <point x="433.998" y="169.92" type="line" smooth="no"/>
      <point x="433.998" y="169.92"/>
      <point x="436.878" y="-7.67924"/>
      <point x="243.918" y="-6.71973" type="curve" smooth="yes"/>
      <point x="198.352" y="-6.49315"/>
      <point x="164.157" y="3.64605"/>
      <point x="138.499" y="18.5686" type="curve" smooth="no"/>
      <point x="130.5" y="-1" type="line" smooth="no"/>
      <point x="34" y="1" type="line" smooth="no"/>
      <point x="73.1793" y="95.2233" type="line" smooth="no"/>
      <point x="62.356" y="122.222"/>
      <point x="61.5186" y="144"/>
      <point x="61.5186" y="144" type="curve" smooth="yes"/>
      <point x="60.0986" y="380.16" type="line" smooth="yes"/>
      <point x="59.1387" y="595.2"/>
      <point x="81.1777" y="643.2"/>
      <point x="205.019" y="670.08" type="curve" smooth="no"/>
    </contour>
  </outline>
</glyph>
<glyph name="Ugrave" format="1">
  <advance width="521"/>
  <unicode hex="00d9"/>
  <outline>
    <contour>
      <point x="407" y="667.479" type="line" smooth="no"/>
      <point x="358" y="766" type="line" smooth="no"/>
      <point x="219" y="766" type="line" smooth="no"/>
      <point x="304" y="668" type="line" smooth="no"/>
      <point x="305.4" y="181.44" type="line" smooth="no"/>
      <point x="292.921" y="156.48"/>
      <point x="285.24" y="141.12"/>
      <point x="248.761" y="141.12" type="curve" smooth="yes"/>
      <point x="212.28" y="141.12"/>
      <point x="213.24" y="185.28"/>
      <point x="213.24" y="185.28" type="curve" smooth="no"/>
      <point x="212.28" y="668.16" type="line" smooth="no"/>
      <point x="75" y="668.16" type="line" smooth="no"/>
      <point x="75" y="165.12" type="line" smooth="no"/>
      <point x="75" y="109.44"/>
      <point x="129.721" y="0"/>
      <point x="252.601" y="0.959961" type="curve" smooth="no"/>
      <point x="391.801" y="1.91992"/>
      <point x="443.641" y="99.8398"/>
      <point x="443.641" y="156.48" type="curve" smooth="yes"/>
      <point x="439.801" y="666.66" type="line" smooth="no"/>
    </contour>
  </outline>
</glyph>
<glyph name="Ucircumflex" format="1">
  <advance width="521"/>
  <unicode hex="00db"/>
  <outline>
    <contour>
      <point x="132" y="719" type="line" smooth="no"/>
      <point x="258" y="812" type="line" smooth="no"/>
      <point x="390" y="766" type="line" smooth="no"/>
      <point x="344" y="684" type="line" smooth="no"/>
      <point x="270.5" y="716.5" type="line" smooth="no"/>
      <point x="211.674" y="668.797" type="line" smooth="no"/>
      <point x="213.24" y="185.28" type="line" smooth="no"/>
      <point x="213.24" y="185.28"/>
      <point x="212.28" y="141.12"/>
      <point x="248.761" y="141.12" type="curve" smooth="yes"/>
      <point x="285.24" y="141.12"/>
      <point x="292.921" y="156.48"/>
      <point x="305.4" y="181.44" type="curve" smooth="no"/>
      <point x="304.44" y="668.16" type="line" smooth="no"/>
      <point x="439.801" y="668.16" type="line" smooth="no"/>
      <point x="443.641" y="156.48" type="line" smooth="yes"/>
      <point x="443.641" y="99.8398"/>
      <point x="391.8" y="1.98367"/>
      <point x="252.601" y="0.959961" type="curve" smooth="yes"/>
      <point x="129.72" y="0.0562717"/>
      <point x="74.9443" y="109.44"/>
      <point x="75" y="165.12" type="curve" smooth="yes"/>
      <point x="75.5" y="666" type="line" smooth="no"/>
      <point x="171.5" y="666" type="line" smooth="no"/>
    </contour>
  </outline>
</glyph>
<glyph name="Udieresis" format="1">
  <advance width="523"/>
  <unicode hex="00dc"/>
  <outline>
    <contour>
      <point x="132.356" y="689.68" type="line" smooth="no"/>
      <point x="90" y="689.68" type="line" smooth="no"/>
      <point x="90" y="791" type="line" smooth="no"/>
      <point x="188.534" y="791" type="line" smooth="no"/>
      <point x="187.735" y="689.68" type="line" smooth="no"/>
      <point x="147.856" y="689.68" type="line" smooth="no"/>
      <point x="147.856" y="668.16" type="line" smooth="no"/>
      <point x="212.28" y="668.16" type="line" smooth="no"/>
      <point x="213.24" y="185.28" type="line" smooth="no"/>
      <point x="213.24" y="185.28"/>
      <point x="212.28" y="141.12"/>
      <point x="248.761" y="141.12" type="curve" smooth="yes"/>
      <point x="285.24" y="141.12"/>
      <point x="292.921" y="156.48"/>
      <point x="305.4" y="181.44" type="curve" smooth="no"/>
      <point x="304.44" y="668.16" type="line" smooth="no"/>
      <point x="361" y="668.16" type="line" smooth="no"/>
      <point x="361" y="692.18" type="line" smooth="no"/>
      <point x="318.644" y="692.18" type="line" smooth="no"/>
      <point x="318.644" y="792" type="line" smooth="no"/>
      <point x="417.178" y="792" type="line" smooth="no"/>
      <point x="416.379" y="692.18" type="line" smooth="no"/>
      <point x="376.5" y="692.18" type="line" smooth="no"/>
      <point x="376.5" y="668.16" type="line" smooth="no"/>
      <point x="439.801" y="668.16" type="line" smooth="no"/>
      <point x="443.641" y="156.48" type="line" smooth="yes"/>
      <point x="443.641" y="99.8398"/>
      <point x="391.8" y="1.98367"/>
      <point x="252.601" y="0.959961" type="curve" smooth="yes"/>
      <point x="129.72" y="0.0562718"/>
      <point x="75" y="109.44"/>
      <point x="75" y="165.12" type="curve" smooth="yes"/>
      <point x="75" y="668.16" type="line" smooth="no"/>
      <point x="132.356" y="668.16" type="line" smooth="no"/>
    </contour>
  </outline>
</glyph>
<glyph name="agrave" format="1">
  <advance width="617"/>
  <unicode hex="00e0"/>
  <outline>
    <contour>
      <point x="349.051" y="498.85" type="line" smooth="no"/>
      <point x="363.252" y="498.551" type="line" smooth="no"/>
      <point x="519.938" y="0" type="line" smooth="no"/>
      <point x="388.891" y="0" type="line" smooth="no"/>
      <point x="299.152" y="247.851" type="line" smooth="no"/>
      <point x="277.785" y="162.385" type="line" smooth="no"/>
      <point x="324.791" y="160.961" type="line" smooth="no"/>
      <point x="350.431" y="84.041" type="line" smooth="no"/>
      <point x="247.872" y="81.1914" type="line" smooth="no"/>
      <point x="225.081" y="0" type="line" smooth="no"/>
      <point x="92.6084" y="0" type="line" smooth="no"/>
      <point x="227.93" y="501.399" type="line" smooth="no"/>
      <point x="263.726" y="500.646" type="line" smooth="no"/>
      <point x="191.656" y="585.34" type="line" smooth="no"/>
      <point x="303.04" y="585.34" type="line" smooth="no"/>
    </contour>
  </outline>
</glyph>
<glyph name="acircumflex" format="1">
  <advance width="617"/>
  <unicode hex="00e2"/>
  <outline>
    <contour>
      <point x="363.252" y="498.551" type="line" smooth="no"/>
      <point x="519.938" y="0" type="line" smooth="no"/>
      <point x="388.891" y="0" type="line" smooth="no"/>
      <point x="299.152" y="247.851" type="line" smooth="no"/>
      <point x="277.785" y="162.385" type="line" smooth="no"/>
      <point x="324.791" y="160.961" type="line" smooth="no"/>
      <point x="350.431" y="84.041" type="line" smooth="no"/>
      <point x="247.872" y="81.1914" type="line" smooth="no"/>
      <point x="225.081" y="0" type="line" smooth="no"/>
      <point x="92.6084" y="0" type="line" smooth="no"/>
      <point x="227.93" y="501.399" type="line" smooth="no"/>
      <point x="274.895" y="500.411" type="line" smooth="no"/>
      <point x="246.09" y="554" type="line" smooth="no"/>
      <point x="358.73" y="598.88" type="line" smooth="no"/>
      <point x="464.33" y="554" type="line" smooth="no"/>
      <point x="426.49" y="483.6" type="line" smooth="no"/>
      <point x="357.851" y="516.159" type="line" smooth="no"/>
      <point x="321.483" y="500.141" type="line" smooth="no"/>
    </contour>
  </outline>
</glyph>
<glyph name="aring" format="1">
  <advance width="467"/>
  <unicode hex="00e5"/>
  <outline>
    <contour>
      <point x="447" y="0" type="line" smooth="no"/>
      <point x="315.953" y="0" type="line" smooth="no"/>
      <point x="226.214" y="247.851" type="line" smooth="no"/>
      <point x="204.847" y="162.385" type="line" smooth="no"/>
      <point x="241.853" y="160.961" type="line" smooth="no"/>
      <point x="267.493" y="84.041" type="line" smooth="no"/>
      <point x="174.934" y="81.1924" type="line" smooth="no"/>
      <point x="152.143" y="0" type="line" smooth="no"/>
      <point x="19.6719" y="0" type="line" smooth="no"/>
      <point x="154.992" y="501.399" type="line" smooth="no"/>
      <point x="196.073" y="500.534" type="line" smooth="no"/>
      <point x="188.066" y="509.489"/>
      <point x="182.408" y="519.08"/>
      <point x="179.1" y="529.308" type="curve" smooth="yes"/>
      <point x="175.557" y="540.26"/>
      <point x="174.142" y="551.574"/>
      <point x="174.854" y="563.25" type="curve" smooth="yes"/>
      <point x="175.567" y="574.926"/>
      <point x="177.753" y="585.607"/>
      <point x="181.413" y="595.295" type="curve" smooth="yes"/>
      <point x="186.807" y="609.573"/>
      <point x="194.216" y="620.903"/>
      <point x="203.642" y="629.287" type="curve" smooth="yes"/>
      <point x="213.068" y="637.672"/>
      <point x="223.188" y="643.753"/>
      <point x="234.004" y="647.533" type="curve" smooth="yes"/>
      <point x="244.819" y="651.313"/>
      <point x="255.708" y="653.027"/>
      <point x="266.668" y="652.674" type="curve" smooth="yes"/>
      <point x="277.629" y="652.32"/>
      <point x="287.591" y="650.451"/>
      <point x="296.553" y="647.065" type="curve" smooth="yes"/>
      <point x="307.008" y="643.115"/>
      <point x="316.713" y="637.555"/>
      <point x="325.668" y="630.385" type="curve" smooth="yes"/>
      <point x="334.622" y="623.215"/>
      <point x="341.782" y="614.683"/>
      <point x="347.147" y="604.79" type="curve" smooth="yes"/>
      <point x="352.513" y="594.896"/>
      <point x="355.614" y="583.528"/>
      <point x="356.452" y="570.685" type="curve" smooth="yes"/>
      <point x="357.29" y="557.841"/>
      <point x="354.915" y="544.025"/>
      <point x="349.329" y="529.238" type="curve" smooth="yes"/>
      <point x="345.283" y="518.53"/>
      <point x="340.496" y="509.997"/>
      <point x="334.964" y="503.638" type="curve" smooth="yes"/>
      <point x="329.432" y="497.278"/>
      <point x="324.21" y="492.114"/>
      <point x="319.296" y="488.144" type="curve" smooth="yes"/>
      <point x="313.194" y="484.039"/>
      <point x="307.229" y="481.049"/>
      <point x="301.399" y="479.173" type="curve" smooth="no"/>
      <point x="279.394" y="545.17" type="line" smooth="no"/>
      <point x="280.277" y="546.002"/>
      <point x="281.506" y="546.994"/>
      <point x="283.079" y="548.148" type="curve" smooth="yes"/>
      <point x="283.963" y="548.979"/>
      <point x="284.99" y="550.194"/>
      <point x="286.162" y="551.79" type="curve" smooth="yes"/>
      <point x="287.334" y="553.387"/>
      <point x="288.209" y="554.95"/>
      <point x="288.787" y="556.479" type="curve" smooth="yes"/>
      <point x="289.75" y="559.029"/>
      <point x="289.376" y="563.686"/>
      <point x="287.664" y="570.451" type="curve" smooth="yes"/>
      <point x="285.953" y="577.216"/>
      <point x="282.358" y="581.632"/>
      <point x="276.882" y="583.701" type="curve" smooth="yes"/>
      <point x="271.405" y="585.77"/>
      <point x="265.733" y="585.437"/>
      <point x="259.863" y="582.702" type="curve" smooth="yes"/>
      <point x="253.993" y="579.967"/>
      <point x="249.903" y="575.539"/>
      <point x="247.592" y="569.421" type="curve" smooth="yes"/>
      <point x="245.087" y="562.792"/>
      <point x="245.899" y="556.658"/>
      <point x="250.027" y="551.02" type="curve" smooth="yes"/>
      <point x="254.156" y="545.382"/>
      <point x="257.714" y="541.999"/>
      <point x="260.701" y="540.87" type="curve" smooth="yes"/>
      <point x="262.693" y="540.117"/>
      <point x="265.567" y="540.196"/>
      <point x="269.325" y="541.107" type="curve" smooth="yes"/>
      <point x="271.204" y="541.563"/>
      <point x="272.835" y="542.113"/>
      <point x="274.215" y="542.757" type="curve" smooth="no"/>
    </contour>
  </outline>
</glyph>
<glyph name="egrave" format="1">
  <advance width="372"/>
  <unicode hex="00e8"/>
  <outline>
    <contour>
      <point x="70" y="498.551" type="line" smooth="no"/>
      <point x="72.8486" y="2.84863" type="line" smooth="no"/>
      <point x="306.455" y="-1.4248" type="line" smooth="no"/>
      <point x="307.879" y="106.832" type="line" smooth="no"/>
      <point x="198.199" y="106.832" type="line" smooth="no"/>
      <point x="198.199" y="193.723" type="line" smooth="no"/>
      <point x="307.879" y="197.995" type="line" smooth="no"/>
      <point x="307.879" y="300.555" type="line" smooth="no"/>
      <point x="198.199" y="300.555" type="line" smooth="no"/>
      <point x="198.199" y="395.991" type="line" smooth="no"/>
      <point x="307.879" y="395.991" type="line" smooth="no"/>
      <point x="307.879" y="500.824" type="line" smooth="no"/>
      <point x="235.256" y="500.52" type="line" smooth="no"/>
      <point x="191.945" y="588.34" type="line" smooth="no"/>
      <point x="80.5615" y="588.34" type="line" smooth="no"/>
      <point x="153.327" y="499.457" type="line" smooth="no"/>
    </contour>
  </outline>
</glyph>
<glyph name="eacute" format="1">
  <advance width="372"/>
  <unicode hex="00e9"/>
  <outline>
    <contour>
      <point x="149.562" y="498.962" type="line" smooth="no"/>
      <point x="70" y="498.551" type="line" smooth="no"/>
      <point x="72.8486" y="2.84863" type="line" smooth="no"/>
      <point x="306.455" y="-1.4248" type="line" smooth="no"/>
      <point x="307.879" y="106.832" type="line" smooth="no"/>
      <point x="198.199" y="106.832" type="line" smooth="no"/>
      <point x="198.199" y="193.723" type="line" smooth="no"/>
      <point x="307.879" y="197.995" type="line" smooth="no"/>
      <point x="307.879" y="300.555" type="line" smooth="no"/>
      <point x="198.199" y="300.555" type="line" smooth="no"/>
      <point x="198.199" y="395.991" type="line" smooth="no"/>
      <point x="307.879" y="395.991" type="line" smooth="no"/>
      <point x="307.879" y="499.824" type="line" smooth="no"/>
      <point x="232.766" y="500.457" type="line" smooth="no"/>
      <point x="305.531" y="588.34" type="line" smooth="no"/>
      <point x="194.147" y="588.34" type="line" smooth="no"/>
    </contour>
  </outline>
</glyph>
<glyph name="edieresis" format="1">
  <advance width="360"/>
  <unicode hex="00eb"/>
  <outline>
    <contour>
      <point x="129.081" y="499.955" type="line" smooth="no"/>
      <point x="237.125" y="500.31" type="line" smooth="no"/>
      <point x="237.125" y="517.615" type="line" smooth="no"/>
      <point x="205.849" y="517.615" type="line" smooth="no"/>
      <point x="205.849" y="591.323" type="line" smooth="no"/>
      <point x="278.606" y="591.323" type="line" smooth="no"/>
      <point x="278.017" y="517.615" type="line" smooth="no"/>
      <point x="248.57" y="517.615" type="line" smooth="no"/>
      <point x="248.57" y="500.348" type="line" smooth="no"/>
      <point x="295" y="500" type="line" smooth="no"/>
      <point x="293.522" y="405.176" type="line" smooth="no"/>
      <point x="179.071" y="402.223" type="line" smooth="no"/>
      <point x="179.81" y="317.685" type="line" smooth="no"/>
      <point x="295" y="317.685" type="line" smooth="no"/>
      <point x="293.522" y="212.953" type="line" smooth="no"/>
      <point x="179.81" y="210" type="line" smooth="no"/>
      <point x="179.81" y="107.024" type="line" smooth="no"/>
      <point x="295" y="105.548" type="line" smooth="no"/>
      <point x="292.046" y="6.74805" type="line" smooth="no"/>
      <point x="64.5264" y="6.74805" type="line" smooth="no"/>
      <point x="63.7881" y="499.63" type="line" smooth="no"/>
      <point x="118.98" y="500.617" type="line" smooth="yes"/>
      <point x="118.98" y="518.354" type="line" smooth="no"/>
      <point x="87.7041" y="518.354" type="line" smooth="no"/>
      <point x="87.7041" y="592.062" type="line" smooth="no"/>
      <point x="160.463" y="592.062" type="line" smooth="no"/>
      <point x="159.873" y="518.354" type="line" smooth="no"/>
      <point x="130.426" y="518.354" type="line" smooth="no"/>
    </contour>
  </outline>
</glyph>
<glyph name="ograve" format="1">
  <advance width="430"/>
  <unicode hex="00f2"/>
  <outline>
    <contour>
      <point x="203.384" y="586" type="line" smooth="no"/>
      <point x="89.5" y="586" type="line" smooth="no"/>
      <point x="155.139" y="498.02" type="line" smooth="no"/>
      <point x="100.592" y="478.696"/>
      <point x="39.5908" y="423.281"/>
      <point x="39.5908" y="272.066" type="curve" smooth="yes"/>
      <point x="39.5908" y="29.9131"/>
      <point x="146.423" y="-9.97026"/>
      <point x="213.371" y="-5.69727" type="curve" smooth="yes"/>
      <point x="308.657" y="0.384409"/>
      <point x="390" y="37.0361"/>
      <point x="390" y="246.427" type="curve" smooth="yes"/>
      <point x="390" y="354.683"/>
      <point x="384.304" y="475.76"/>
      <point x="256.104" y="505.673" type="curve" smooth="no"/>
      <point x="256.104" y="141.019" type="line" smooth="no"/>
      <point x="256.104" y="141.019"/>
      <point x="246.133" y="122.501"/>
      <point x="219.068" y="122.501" type="curve" smooth="yes"/>
      <point x="182.034" y="122.501"/>
      <point x="184.883" y="148.141"/>
      <point x="184.883" y="148.141" type="curve" smooth="no"/>
      <point x="184.883" y="347.561" type="line" smooth="yes"/>
      <point x="184.883" y="346.137"/>
      <point x="187.731" y="381.747"/>
      <point x="214.795" y="381.747" type="curve" smooth="yes"/>
      <point x="233.5" y="381.747"/>
      <point x="239" y="373.2"/>
      <point x="239.133" y="373.2" type="curve" smooth="no"/>
      <point x="239.133" y="505.673" type="line" smooth="no"/>
    </contour>
  </outline>
</glyph>
<glyph name="otilde" format="1">
  <advance width="430"/>
  <unicode hex="00f5"/>
  <outline>
    <contour>
      <point x="161.262" y="500.05" type="line" smooth="yes"/>
      <point x="161.262" y="500.05"/>
      <point x="171.002" y="505.621"/>
      <point x="177.07" y="508.328" type="curve" smooth="yes"/>
      <point x="183.54" y="511.215"/>
      <point x="190.835" y="513.374"/>
      <point x="198.957" y="514.807" type="curve" smooth="yes"/>
      <point x="207.078" y="516.239"/>
      <point x="215.658" y="516.77"/>
      <point x="224.695" y="516.398" type="curve" smooth="yes"/>
      <point x="233.733" y="516.027"/>
      <point x="242.634" y="515.305"/>
      <point x="251.396" y="514.23" type="curve" smooth="yes"/>
      <point x="260.158" y="513.156"/>
      <point x="268.576" y="512.349"/>
      <point x="276.646" y="511.807" type="curve" smooth="yes"/>
      <point x="284.717" y="511.265"/>
      <point x="292.233" y="511.608"/>
      <point x="299.194" y="512.836" type="curve" smooth="no"/>
      <point x="308.776" y="516.162" type="line" smooth="no"/>
      <point x="320.343" y="521.804" type="line" smooth="no"/>
      <point x="333.838" y="530.076" type="line" smooth="no"/>
      <point x="332.317" y="616.163" type="line" smooth="no"/>
      <point x="328.512" y="612.873"/>
      <point x="323.99" y="609.107"/>
      <point x="319.753" y="604.868" type="curve" smooth="yes"/>
      <point x="315.516" y="600.629"/>
      <point x="309.53" y="597.826"/>
      <point x="301.795" y="596.462" type="curve" smooth="yes"/>
      <point x="292.9" y="594.894"/>
      <point x="284.049" y="594.206"/>
      <point x="275.242" y="594.399" type="curve" smooth="yes"/>
      <point x="266.435" y="594.593"/>
      <point x="257.785" y="595.033"/>
      <point x="249.29" y="595.718" type="curve" smooth="yes"/>
      <point x="240.795" y="596.402"/>
      <point x="232.434" y="596.893"/>
      <point x="224.207" y="597.188" type="curve" smooth="yes"/>
      <point x="215.979" y="597.484"/>
      <point x="207.999" y="596.95"/>
      <point x="200.265" y="595.587" type="curve" smooth="yes"/>
      <point x="198.718" y="595.313"/>
      <point x="195.487" y="594.416"/>
      <point x="190.571" y="592.895" type="curve" smooth="yes"/>
      <point x="185.655" y="591.372"/>
      <point x="180.312" y="589.448"/>
      <point x="174.541" y="587.121" type="curve" smooth="yes"/>
      <point x="168.772" y="584.795"/>
      <point x="163.057" y="582.149"/>
      <point x="157.398" y="579.187" type="curve" smooth="yes"/>
      <point x="151.74" y="576.224"/>
      <point x="147.394" y="573.167"/>
      <point x="144.361" y="570.012" type="curve" smooth="no"/>
      <point x="146.044" y="494.474" type="line" smooth="no"/>
      <point x="94.0332" y="472.275"/>
      <point x="39.5908" y="414.921"/>
      <point x="39.5908" y="272.066" type="curve" smooth="yes"/>
      <point x="39.5908" y="29.9131"/>
      <point x="146.423" y="-9.97026"/>
      <point x="213.371" y="-5.69727" type="curve" smooth="yes"/>
      <point x="308.657" y="0.384409"/>
      <point x="390" y="37.0361"/>
      <point x="390" y="246.427" type="curve" smooth="yes"/>
      <point x="390" y="354.683"/>
      <point x="384.304" y="475.76"/>
      <point x="256.104" y="505.673" type="curve" smooth="no"/>
      <point x="256.104" y="141.019" type="line" smooth="no"/>
      <point x="256.104" y="141.019"/>
      <point x="246.133" y="122.501"/>
      <point x="219.068" y="122.501" type="curve" smooth="yes"/>
      <point x="182.034" y="122.501"/>
      <point x="184.883" y="148.141"/>
      <point x="184.883" y="148.141" type="curve" smooth="no"/>
      <point x="184.883" y="347.561" type="line" smooth="yes"/>
      <point x="184.883" y="346.137"/>
      <point x="187.731" y="381.747"/>
      <point x="214.795" y="381.747" type="curve" smooth="yes"/>
      <point x="233.667" y="381.747"/>
      <point x="239" y="373.333"/>
      <point x="239.133" y="373.2" type="curve" smooth="yes"/>
      <point x="239.133" y="505.673" type="line" smooth="no"/>
      <point x="239.133" y="505.673"/>
      <point x="202.87" y="512.921"/>
      <point x="161.262" y="500.05" type="curve" smooth="no"/>
    </contour>
  </outline>
</glyph>
<glyph name="divide" format="1">
  <advance width="436"/>
  <unicode hex="00f7"/>
  <outline>
    <contour>
      <point x="300" y="465" type="line" smooth="no"/>
      <point x="300" y="324" type="line" smooth="no"/>
      <point x="142" y="324" type="line" smooth="no"/>
      <point x="142" y="465" type="line" smooth="no"/>
    </contour>
    <contour>
      <point x="301" y="141" type="line" smooth="no"/>
      <point x="301" y="0" type="line" smooth="no"/>
      <point x="142" y="0" type="line" smooth="no"/>
      <point x="142" y="141" type="line" smooth="no"/>
    </contour>
    <contour>
      <point x="50" y="293" type="line" smooth="yes"/>
      <point x="386" y="293" type="line" smooth="yes"/>
      <point x="386" y="173" type="line" smooth="yes"/>
      <point x="50" y="173" type="line" smooth="yes"/>
    </contour>
  </outline>
</glyph>
<glyph name="uacute" format="1">
  <advance width="444"/>
  <unicode hex="00fa"/>
  <outline>
    <contour>
      <point x="113.562" y="498.962" type="line" smooth="no"/>
      <point x="158.147" y="588.34" type="line" smooth="no"/>
      <point x="269.531" y="588.34" type="line" smooth="no"/>
      <point x="190.713" y="499.976" type="line" smooth="no"/>
      <point x="190.016" y="223.635" type="line" smooth="no"/>
      <point x="190.016" y="195.146"/>
      <point x="180.044" y="126.773"/>
      <point x="225.626" y="126.773" type="curve" smooth="yes"/>
      <point x="271.208" y="126.773"/>
      <point x="262.661" y="180.902"/>
      <point x="262.661" y="180.902" type="curve" smooth="no"/>
      <point x="262.661" y="499.976" type="line" smooth="no"/>
      <point x="383.736" y="499.976" type="line" smooth="no"/>
      <point x="383.736" y="196.571" type="line" smooth="no"/>
      <point x="383.736" y="149.565"/>
      <point x="397.98" y="0"/>
      <point x="217.079" y="0" type="curve" smooth="yes"/>
      <point x="46.1475" y="0"/>
      <point x="60.3926" y="170.932"/>
      <point x="60.3926" y="237.88" type="curve" smooth="no"/>
      <point x="68.9385" y="499.976" type="line" smooth="no"/>
    </contour>
  </outline>
</glyph>
<glyph name="ucircumflex" format="1">
  <advance width="444"/>
  <unicode hex="00fb"/>
  <outline>
    <contour>
      <point x="147.428" y="499.259" type="line" smooth="no"/>
      <point x="121.1" y="549.5" type="line" smooth="no"/>
      <point x="234.5" y="621.6" type="line" smooth="no"/>
      <point x="347.9" y="583.8" type="line" smooth="no"/>
      <point x="306.5" y="510" type="line" smooth="no"/>
      <point x="240" y="534" type="line" smooth="no"/>
      <point x="192.059" y="500.061" type="line" smooth="no"/>
      <point x="190.016" y="223.635" type="line" smooth="no"/>
      <point x="190.016" y="195.146"/>
      <point x="180.044" y="126.773"/>
      <point x="225.626" y="126.773" type="curve" smooth="yes"/>
      <point x="271.208" y="126.773"/>
      <point x="262.661" y="180.902"/>
      <point x="262.661" y="180.902" type="curve" smooth="no"/>
      <point x="262.661" y="499.976" type="line" smooth="no"/>
      <point x="383.736" y="499.976" type="line" smooth="no"/>
      <point x="383.736" y="196.571" type="line" smooth="no"/>
      <point x="383.736" y="149.565"/>
      <point x="397.98" y="0"/>
      <point x="217.079" y="0" type="curve" smooth="yes"/>
      <point x="46.1475" y="0"/>
      <point x="60.3926" y="170.932"/>
      <point x="60.3926" y="237.88" type="curve" smooth="no"/>
      <point x="68.9385" y="499.976" type="line" smooth="no"/>
    </contour>
  </outline>
</glyph>
<glyph name="OE" format="1">
  <advance width="649"/>
  <unicode hex="0152"/>
  <outline>
    <contour>
      <point x="232.92" y="-1.71973" type="line" smooth="yes"/>
      <point x="56.2822" y="-0.841797"/>
      <point x="51.5205" y="144"/>
      <point x="51.5205" y="144" type="curve" smooth="no"/>
      <point x="49.6006" y="380.16" type="line" smooth="no"/>
      <point x="49.6006" y="540"/>
      <point x="62" y="648"/>
      <point x="229.52" y="665.08" type="curve" smooth="no"/>
      <point x="589" y="668.16" type="line" smooth="no"/>
      <point x="587.08" y="545.28" type="line" smooth="no"/>
      <point x="246" y="545" type="line" smooth="no"/>
      <point x="194" y="545"/>
      <point x="201" y="494"/>
      <point x="201" y="494" type="curve" smooth="yes"/>
      <point x="201" y="169" type="line" smooth="no"/>
      <point x="201" y="169"/>
      <point x="204" y="132.48"/>
      <point x="237.76" y="132.48" type="curve" smooth="no"/>
      <point x="284" y="132.48"/>
      <point x="285" y="189"/>
      <point x="283.84" y="188.16" type="curve" smooth="no"/>
      <point x="283.84" y="527.82" type="line" smooth="no"/>
      <point x="434" y="527.5" type="line" smooth="no"/>
      <point x="433.48" y="414.72" type="line" smooth="no"/>
      <point x="589" y="414.72" type="line" smooth="no"/>
      <point x="587.08" y="284.16" type="line" smooth="no"/>
      <point x="433.48" y="280.32" type="line" smooth="no"/>
      <point x="433.48" y="126.72" type="line" smooth="no"/>
      <point x="589" y="124.8" type="line" smooth="no"/>
      <point x="585.16" y="0" type="line" smooth="no"/>
    </contour>
  </outline>
</glyph>
<glyph name="oe" format="1">
  <advance width="518"/>
  <unicode hex="0153"/>
  <outline>
    <contour>
      <point x="213.908" y="153.87" type="line" smooth="no"/>
      <point x="213.908" y="153.87"/>
      <point x="210.362" y="122.501"/>
      <point x="183.299" y="122.501" type="curve" smooth="yes"/>
      <point x="146.265" y="122.501"/>
      <point x="149.112" y="157.779"/>
      <point x="149.112" y="157.779" type="curve" smooth="no"/>
      <point x="149.112" y="351.846" type="line" smooth="no"/>
      <point x="149.112" y="350.421"/>
      <point x="144.731" y="396.741"/>
      <point x="179.024" y="396.741" type="curve" smooth="yes"/>
      <point x="348.318" y="395.991" type="line" smooth="no"/>
      <point x="458" y="395.991" type="line" smooth="no"/>
      <point x="458" y="499.61" type="line" smooth="no"/>
      <point x="197.512" y="499.246" type="line" smooth="no"/>
      <point x="197.512" y="499.246"/>
      <point x="29.5254" y="510.866"/>
      <point x="29.5254" y="262.427" type="curve" smooth="yes"/>
      <point x="29.5254" y="20.2734"/>
      <point x="141.52" y="1.07031"/>
      <point x="194.736" y="-0.342773" type="curve" smooth="yes"/>
      <point x="456.575" y="-0.353516" type="line" smooth="no"/>
      <point x="458" y="106.832" type="line" smooth="no"/>
      <point x="348.318" y="106.832" type="line" smooth="no"/>
      <point x="348.318" y="193.723" type="line" smooth="no"/>
      <point x="458" y="197.995" type="line" smooth="no"/>
      <point x="458" y="300.555" type="line" smooth="no"/>
      <point x="348.318" y="300.555" type="line" smooth="no"/>
      <point x="348.318" y="383.418" type="line" smooth="yes"/>
      <point x="214.348" y="383.418" type="line" smooth="no"/>
    </contour>
  </outline>
</glyph>
<glyph name="ring" format="1">
  <advance width="305"/>
  <unicode hex="02da"/>
  <outline>
    <contour>
      <point x="163" y="672" type="curve" smooth="yes"/>
      <point x="177" y="672"/>
      <point x="190.833" y="669.833"/>
      <point x="204.5" y="665.5" type="curve" smooth="yes"/>
      <point x="218.167" y="661.167"/>
      <point x="230.333" y="654.5"/>
      <point x="241" y="645.5" type="curve" smooth="yes"/>
      <point x="251.667" y="636.5"/>
      <point x="260.333" y="624.833"/>
      <point x="267" y="610.5" type="curve" smooth="yes"/>
      <point x="273.667" y="596.167"/>
      <point x="277" y="579.333"/>
      <point x="277" y="560" type="curve" smooth="yes"/>
      <point x="277" y="546"/>
      <point x="275.167" y="534.167"/>
      <point x="271.5" y="524.5" type="curve" smooth="yes"/>
      <point x="267.833" y="514.833"/>
      <point x="264" y="506.667"/>
      <point x="260" y="500" type="curve" smooth="yes"/>
      <point x="254.667" y="492.667"/>
      <point x="249" y="486.667"/>
      <point x="243" y="482" type="curve" smooth="yes"/>
      <point x="188" y="548" type="line" smooth="yes"/>
      <point x="188.667" y="549.333"/>
      <point x="189.667" y="551"/>
      <point x="191" y="553" type="curve" smooth="yes"/>
      <point x="191.667" y="554.333"/>
      <point x="192.333" y="556.167"/>
      <point x="193" y="558.5" type="curve" smooth="yes"/>
      <point x="193.667" y="560.833"/>
      <point x="194" y="563"/>
      <point x="194" y="565" type="curve" smooth="yes"/>
      <point x="194" y="568.333"/>
      <point x="191.5" y="573.5"/>
      <point x="186.5" y="580.5" type="curve" smooth="yes"/>
      <point x="181.5" y="587.5"/>
      <point x="175.333" y="591"/>
      <point x="168" y="591" type="curve" smooth="yes"/>
      <point x="160.667" y="591"/>
      <point x="154.167" y="588.167"/>
      <point x="148.5" y="582.5" type="curve" smooth="yes"/>
      <point x="142.833" y="576.833"/>
      <point x="140" y="570"/>
      <point x="140" y="562" type="curve" smooth="yes"/>
      <point x="140" y="553.333"/>
      <point x="143.667" y="546.667"/>
      <point x="151" y="542" type="curve" smooth="yes"/>
      <point x="158.333" y="537.333"/>
      <point x="164" y="535"/>
      <point x="168" y="535" type="curve" smooth="yes"/>
      <point x="170.667" y="535"/>
      <point x="174" y="536.333"/>
      <point x="178" y="539" type="curve" smooth="yes"/>
      <point x="180" y="540.333"/>
      <point x="181.667" y="541.667"/>
      <point x="183" y="543" type="curve" smooth="yes"/>
      <point x="239" y="477" type="line" smooth="yes"/>
      <point x="234.333" y="471.667"/>
      <point x="228.333" y="467"/>
      <point x="221" y="463" type="curve" smooth="yes"/>
      <point x="215" y="459.667"/>
      <point x="207.5" y="456.5"/>
      <point x="198.5" y="453.5" type="curve" smooth="yes"/>
      <point x="189.5" y="450.5"/>
      <point x="178.667" y="449"/>
      <point x="166" y="449" type="curve" smooth="yes"/>
      <point x="145.333" y="449"/>
      <point x="127.667" y="452.5"/>
      <point x="113" y="459.5" type="curve" smooth="yes"/>
      <point x="98.3333" y="466.5"/>
      <point x="86.5" y="475.5"/>
      <point x="77.5" y="486.5" type="curve" smooth="yes"/>
      <point x="68.5" y="497.5"/>
      <point x="61.8333" y="509.833"/>
      <point x="57.5" y="523.5" type="curve" smooth="yes"/>
      <point x="53.1667" y="537.167"/>
      <point x="51" y="550.333"/>
      <point x="51" y="563" type="curve" smooth="yes"/>
      <point x="51" y="581.667"/>
      <point x="54.6667" y="597.833"/>
      <point x="62" y="611.5" type="curve" smooth="yes"/>
      <point x="69.3333" y="625.167"/>
      <point x="78.5" y="636.5"/>
      <point x="89.5" y="645.5" type="curve" smooth="yes"/>
      <point x="100.5" y="654.5"/>
      <point x="112.5" y="661.167"/>
      <point x="125.5" y="665.5" type="curve" smooth="yes"/>
      <point x="138.5" y="669.833"/>
      <point x="151" y="672"/>
    </contour>
  </outline>
</glyph>
<glyph name="endash" format="1">
  <advance width="361"/>
  <unicode hex="2013"/>
  <outline>
    <contour>
      <point x="50" y="233" type="line" smooth="yes"/>
      <point x="311" y="233" type="line" smooth="yes"/>
      <point x="311" y="105" type="line" smooth="yes"/>
      <point x="50" y="105" type="line" smooth="yes"/>
    </contour>
  </outline>
</glyph>
<glyph name="daggerdbl" format="1">
  <advance width="413"/>
  <unicode hex="2021"/>
  <outline>
    <contour>
      <point x="129" y="526" type="line" smooth="yes"/>
      <point x="129" y="665" type="line" smooth="yes"/>
      <point x="278" y="666" type="line" smooth="yes"/>
      <point x="278" y="526" type="line" smooth="yes"/>
      <point x="377" y="526" type="line" smooth="yes"/>
      <point x="377" y="393" type="line" smooth="yes"/>
      <point x="278" y="393" type="line" smooth="yes"/>
      <point x="278" y="-1" type="line" smooth="yes"/>
      <point x="129" y="-1" type="line" smooth="yes"/>
      <point x="129" y="393" type="line" smooth="yes"/>
      <point x="36" y="393" type="line" smooth="yes"/>
      <point x="35" y="526" type="line" smooth="yes"/>
    </contour>
  </outline>
</glyph>
<glyph name="bullet" format="1">
  <advance width="413"/>
  <unicode hex="2022"/>
  <outline>
    <contour>
      <point x="278" y="-1" type="line" smooth="no"/>
      <point x="129" y="-1" type="line" smooth="no"/>
      <point x="129" y="170" type="line" smooth="yes"/>
      <point x="36" y="170" type="line" smooth="yes"/>
      <point x="35" y="303" type="line" smooth="yes"/>
      <point x="129" y="303" type="line" smooth="yes"/>
      <point x="129" y="393" type="line" smooth="no"/>
      <point x="36" y="393" type="line" smooth="no"/>
      <point x="35" y="526" type="line" smooth="no"/>
      <point x="129" y="526" type="line" smooth="no"/>
      <point x="129" y="665" type="line" smooth="no"/>
      <point x="278" y="666" type="line" smooth="no"/>
      <point x="278" y="526" type="line" smooth="no"/>
      <point x="377" y="526" type="line" smooth="no"/>
      <point x="377" y="393" type="line" smooth="no"/>
      <point x="278" y="393" type="line" smooth="no"/>
      <point x="278" y="303" type="line" smooth="yes"/>
      <point x="377" y="303" type="line" smooth="yes"/>
      <point x="377" y="170" type="line" smooth="yes"/>
      <point x="278" y="170" type="line" smooth="yes"/>
    </contour>
  </outline>
</glyph>
<glyph name="uni2023" format="1">
  <advance width="332"/>
  <unicode hex="2023"/>
  <outline>
    <contour>
      <point x="70" y="344" type="line" smooth="no"/>
      <point x="70" y="134" type="line" smooth="no"/>
      <point x="289" y="235" type="line" smooth="no"/>
    </contour>
  </outline>
</glyph>
<glyph name="arrowright" format="1">
  <advance width="742"/>
  <unicode hex="2192"/>
  <outline>
    <contour>
      <point x="515" y="157" type="line" smooth="yes"/>
      <point x="55" y="158" type="line" smooth="yes"/>
      <point x="98" y="227" type="line" smooth="yes"/>
      <point x="75" y="298" type="line" smooth="yes"/>
      <point x="537" y="298" type="line" smooth="yes"/>
      <point x="558" y="424" type="line" smooth="yes"/>
      <point x="701" y="227" type="line" smooth="yes"/>
      <point x="495" y="31" type="line" smooth="yes"/>
    </contour>
  </outline>
</glyph>
<glyph name="arrowdown" format="1">
  <advance width="469"/>
  <unicode hex="2193"/>
  <outline>
    <contour>
      <point x="164" y="185" type="line" smooth="yes"/>
      <point x="248" y="654" type="line" smooth="yes"/>
      <point x="309" y="616" type="line" smooth="yes"/>
      <point x="392" y="654" type="line" smooth="yes"/>
      <point x="314" y="185" type="line" smooth="yes"/>
      <point x="431" y="185" type="line" smooth="yes"/>
      <point x="212" y="0" type="line" smooth="yes"/>
      <point x="42" y="185" type="line" smooth="yes"/>
    </contour>
  </outline>
</glyph>
<glyph name="infinity" format="1">
  <advance width="613"/>
  <unicode hex="221e"/>
  <outline>
    <contour>
      <point x="204" y="349" type="line" smooth="no"/>
      <point x="210.667" y="349"/>
      <point x="219.667" y="348"/>
      <point x="231" y="346" type="curve" smooth="yes"/>
      <point x="242.333" y="344"/>
      <point x="254" y="341.333"/>
      <point x="266" y="338" type="curve" smooth="yes"/>
      <point x="278" y="334.667"/>
      <point x="289.5" y="330.667"/>
      <point x="300.5" y="326" type="curve" smooth="yes"/>
      <point x="311.5" y="321.333"/>
      <point x="320.333" y="316.667"/>
      <point x="327" y="312" type="curve" smooth="no"/>
      <point x="362" y="156" type="line" smooth="no"/>
      <point x="368" y="152.667"/>
      <point x="374.333" y="150"/>
      <point x="381" y="148" type="curve" smooth="yes"/>
      <point x="387.667" y="146"/>
      <point x="394.333" y="145"/>
      <point x="401" y="145" type="curve" smooth="yes"/>
      <point x="414.333" y="145"/>
      <point x="425" y="149.333"/>
      <point x="433" y="158" type="curve" smooth="yes"/>
      <point x="441" y="166.667"/>
      <point x="446" y="175.333"/>
      <point x="448" y="184" type="curve" smooth="yes"/>
      <point x="451.333" y="198.667"/>
      <point x="448.833" y="210"/>
      <point x="440.5" y="218" type="curve" smooth="yes"/>
      <point x="432.167" y="226"/>
      <point x="423.333" y="230"/>
      <point x="414" y="230" type="curve" smooth="yes"/>
      <point x="400.667" y="230"/>
      <point x="389.5" y="227.833"/>
      <point x="380.5" y="223.5" type="curve" smooth="yes"/>
      <point x="371.5" y="219.167"/>
      <point x="364.333" y="214.333"/>
      <point x="359" y="209" type="curve" smooth="no"/>
      <point x="336" y="312" type="line" smooth="no"/>
      <point x="348" y="322.667"/>
      <point x="360.833" y="330.833"/>
      <point x="374.5" y="336.5" type="curve" smooth="yes"/>
      <point x="388.167" y="342.167"/>
      <point x="401.167" y="346.167"/>
      <point x="413.5" y="348.5" type="curve" smooth="yes"/>
      <point x="425.833" y="350.833"/>
      <point x="437" y="352"/>
      <point x="447" y="352" type="curve" smooth="yes"/>
      <point x="470" y="352" type="line" smooth="yes"/>
      <point x="482.667" y="352"/>
      <point x="496.833" y="349"/>
      <point x="512.5" y="343" type="curve" smooth="yes"/>
      <point x="528.167" y="337"/>
      <point x="542.5" y="327"/>
      <point x="555.5" y="313" type="curve" smooth="yes"/>
      <point x="568.5" y="299"/>
      <point x="578.5" y="280.667"/>
      <point x="585.5" y="258" type="curve" smooth="yes"/>
      <point x="592.5" y="235.333"/>
      <point x="593.333" y="207.667"/>
      <point x="588" y="175" type="curve" smooth="yes"/>
      <point x="588" y="174.333"/>
      <point x="586" y="166.167"/>
      <point x="582" y="150.5" type="curve" smooth="yes"/>
      <point x="578" y="134.833"/>
      <point x="570" y="117.833"/>
      <point x="558" y="99.5" type="curve" smooth="yes"/>
      <point x="546" y="81.1667"/>
      <point x="529.167" y="64.3333"/>
      <point x="507.5" y="49" type="curve" smooth="yes"/>
      <point x="485.833" y="33.6667"/>
      <point x="457" y="26"/>
      <point x="421" y="26" type="curve" smooth="yes"/>
      <point x="409" y="26" type="line" smooth="yes"/>
      <point x="403" y="26"/>
      <point x="393.5" y="27.1667"/>
      <point x="380.5" y="29.5" type="curve" smooth="yes"/>
      <point x="367.5" y="31.8333"/>
      <point x="354" y="35"/>
      <point x="340" y="39" type="curve" smooth="yes"/>
      <point x="326" y="43"/>
      <point x="313.167" y="47.3333"/>
      <point x="301.5" y="52" type="curve" smooth="yes"/>
      <point x="289.833" y="56.6667"/>
      <point x="282.333" y="61"/>
      <point x="279" y="65" type="curve" smooth="no"/>
      <point x="235" y="218" type="line" smooth="no"/>
      <point x="231.667" y="219.333"/>
      <point x="225.667" y="221.5"/>
      <point x="217" y="224.5" type="curve" smooth="yes"/>
      <point x="208.333" y="227.5"/>
      <point x="202" y="229"/>
      <point x="198" y="229" type="curve" smooth="yes"/>
      <point x="186" y="229"/>
      <point x="174.167" y="225.5"/>
      <point x="162.5" y="218.5" type="curve" smooth="yes"/>
      <point x="150.833" y="211.5"/>
      <point x="143.333" y="201.333"/>
      <point x="140" y="188" type="curve" smooth="no"/>
      <point x="138" y="174.667"/>
      <point x="141.5" y="164.5"/>
      <point x="150.5" y="157.5" type="curve" smooth="yes"/>
      <point x="159.5" y="150.5"/>
      <point x="170.667" y="147"/>
      <point x="184" y="147" type="curve" smooth="yes"/>
      <point x="188" y="147"/>
      <point x="192.833" y="147.833"/>
      <point x="198.5" y="149.5" type="curve" smooth="yes"/>
      <point x="204.167" y="151.167"/>
      <point x="210" y="153"/>
      <point x="216" y="155" type="curve" smooth="yes"/>
      <point x="222" y="157"/>
      <point x="227.333" y="159.167"/>
      <point x="232" y="161.5" type="curve" smooth="yes"/>
      <point x="236.667" y="163.833"/>
      <point x="240" y="166"/>
      <point x="242" y="168" type="curve" smooth="no"/>
      <point x="271" y="61" type="line" smooth="no"/>
      <point x="261.667" y="53"/>
      <point x="251" y="46.3333"/>
      <point x="239" y="41" type="curve" smooth="yes"/>
      <point x="227" y="35.6667"/>
      <point x="214.667" y="31.5"/>
      <point x="202" y="28.5" type="curve" smooth="yes"/>
      <point x="189.333" y="25.5"/>
      <point x="176.833" y="23.5"/>
      <point x="164.5" y="22.5" type="curve" smooth="yes"/>
      <point x="152.167" y="21.5"/>
      <point x="141.667" y="21"/>
      <point x="133" y="21" type="curve" smooth="yes"/>
      <point x="116.333" y="21"/>
      <point x="100.333" y="25"/>
      <point x="85" y="33" type="curve" smooth="yes"/>
      <point x="69.6667" y="41"/>
      <point x="56.5" y="52.5"/>
      <point x="45.5" y="67.5" type="curve" smooth="yes"/>
      <point x="34.5" y="82.5"/>
      <point x="26.5" y="100.667"/>
      <point x="21.5" y="122" type="curve" smooth="yes"/>
      <point x="16.5" y="143.333"/>
      <point x="15.6667" y="167"/>
      <point x="19" y="193" type="curve" smooth="yes"/>
      <point x="21.6667" y="215.667"/>
      <point x="27.8333" y="236.667"/>
      <point x="37.5" y="256" type="curve" smooth="yes"/>
      <point x="47.1667" y="275.333"/>
      <point x="59.5" y="291.833"/>
      <point x="74.5" y="305.5" type="curve" smooth="yes"/>
      <point x="89.5" y="319.167"/>
      <point x="106.833" y="329.833"/>
      <point x="126.5" y="337.5" type="curve" smooth="yes"/>
      <point x="146.167" y="345.167"/>
      <point x="167.667" y="349"/>
      <point x="191" y="349" type="curve" smooth="yes"/>
      <point x="204" y="349" type="line" smooth="no"/>
    </contour>
  </outline>
</glyph>
